<?xml version="1.0" encoding="UTF-8" standalone="no"?>
<!DOCTYPE svg PUBLIC "-//W3C//DTD SVG 1.1//EN" "http://www.w3.org/Graphics/SVG/1.1/DTD/svg11.dtd">
<svg version="1.1" xmlns="http://www.w3.org/2000/svg" xmlns:xlink="http://www.w3.org/1999/xlink" preserveAspectRatio="xMidYMid meet" viewBox="0 0 64 64" width="64" height="64"><defs><path d="M64 32C64 49.66 49.66 64 32 64C14.34 64 0 49.66 0 32C0 14.34 14.34 0 32 0C49.66 0 64 14.34 64 32Z" id="b8DFq5IuO"></path><path d="M36.59 42.48L18.37 53.57L18.02 32L17.67 10.43L36.24 20.92L54.81 31.4L36.59 42.48Z" id="b1l3SDw77I"></path><path d="M20.53 44.14L17.84 56.38L17.4 32L16.96 7.62L20.09 19.76L23.22 31.89L20.53 44.14Z" id="b9aokVou2"></path><path d="M35.94 32.84L22.83 33.99L22.79 32.23L22.76 30.46L35.91 31.08L49.06 31.69L35.94 32.84Z" id="bJcjN8dJC"></path></defs><g><g><g><use xlink:href="#b8DFq5IuO" opacity="1" fill="#f62a00" fill-opacity="1"></use></g><g><use xlink:href="#b1l3SDw77I" opacity="1" fill="#ffffff" fill-opacity="1"></use></g><g><use xlink:href="#b9aokVou2" opacity="1" fill="#f62a00" fill-opacity="1"></use></g><g><use xlink:href="#bJcjN8dJC" opacity="1" fill="#f62a00" fill-opacity="1"></use></g></g></g></svg>