<?xml version="1.0" encoding="UTF-8" standalone="no"?>
<!DOCTYPE svg PUBLIC "-//W3C//DTD SVG 1.1//EN" "http://www.w3.org/Graphics/SVG/1.1/DTD/svg11.dtd">
<svg version="1.1" xmlns="http://www.w3.org/2000/svg" xmlns:xlink="http://www.w3.org/1999/xlink" preserveAspectRatio="xMidYMid meet" viewBox="0 0 32 24" width="32" height="24"><defs><path d="M31.77 108.57C31.77 106.3 33.66 104.45 35.98 104.45C38.3 104.45 40.19 106.3 40.19 108.57C40.19 110.85 38.3 112.69 35.98 112.69C33.66 112.69 31.77 110.85 31.77 108.57Z" id="c8tKtgZbyb"></path><path d="M31.77 108.57C31.77 106.3 33.66 104.45 35.98 104.45C38.3 104.45 40.19 106.3 40.19 108.57C40.19 110.85 38.3 112.69 35.98 112.69C33.66 112.69 31.77 110.85 31.77 108.57Z" id="c9eVG2NT5"></path><path d="M40.19 108.92L31.77 108.92L31.77 89.44L40.19 89.44L40.19 108.92Z" id="e3wgbqMag4"></path><path d="M40.19 108.92L31.77 108.92L31.77 89.44L40.19 89.44L40.19 108.92Z" id="ciZVBUxIz"></path><path d="M41.34 88.95L30.66 88.95L30.66 87.49L41.34 87.49L41.34 88.95Z" id="a7fMnV7YPr"></path><path d="M41.34 88.95L30.66 88.95L30.66 87.49L41.34 87.49L41.34 88.95Z" id="aOUvVsig1"></path><path d="M36.4 95.34C36.4 94.63 36.96 94.06 37.64 94.06C38.32 94.06 38.88 94.63 38.88 95.34C38.88 96.04 38.32 96.62 37.64 96.62C36.96 96.62 36.4 96.04 36.4 95.34Z" id="agiKnMRgx"></path><path d="M36.4 95.34C36.4 94.63 36.96 94.06 37.64 94.06C38.32 94.06 38.88 94.63 38.88 95.34C38.88 96.04 38.32 96.62 37.64 96.62C36.96 96.62 36.4 96.04 36.4 95.34Z" id="e1gbmZP7D3"></path><path d="M33.11 100.91C33.11 99.96 33.85 99.18 34.75 99.18C35.66 99.18 36.4 99.96 36.4 100.91C36.4 101.87 35.66 102.65 34.75 102.65C33.85 102.65 33.11 101.87 33.11 100.91Z" id="d1QsCDpvXx"></path><path d="M33.11 100.91C33.11 99.96 33.85 99.18 34.75 99.18C35.66 99.18 36.4 99.96 36.4 100.91C36.4 101.87 35.66 102.65 34.75 102.65C33.85 102.65 33.11 101.87 33.11 100.91Z" id="liqr2HoMH"></path><path d="M12.43 20.93L6.38 15.33L19.09 2.28L25.14 7.87L12.43 20.93Z" id="eXK3BTSBz"></path><path d="M12.43 20.93L6.38 15.33L19.09 2.28L25.14 7.87L12.43 20.93Z" id="d2euqsDJel"></path><path d="M25.63 7.38L19.66 1.71L21.13 0.24L27.1 5.91L25.63 7.38Z" id="d4ZsLUO1eB"></path><path d="M25.63 7.38L19.66 1.71L21.13 0.24L27.1 5.91L25.63 7.38Z" id="e9FRUzxSTb"></path><path d="M8.87 18.75L11.86 21.58L7.88 22.66L3.9 23.74L4.88 19.82L5.87 15.92L8.87 18.75Z" id="c7QKtrLnF"></path><path d="M8.87 18.75L11.86 21.58L7.88 22.66L3.9 23.74L4.88 19.82L5.87 15.92L8.87 18.75Z" id="avcts4r69"></path></defs><g><g><g><use xlink:href="#c8tKtgZbyb" opacity="1" fill="#ffffff" fill-opacity="1"></use><g><use xlink:href="#c8tKtgZbyb" opacity="1" fill-opacity="0" stroke="#000000" stroke-width="1" stroke-opacity="0"></use></g></g><g><use xlink:href="#c9eVG2NT5" opacity="1" fill="#000000" fill-opacity="0"></use><g><use xlink:href="#c9eVG2NT5" opacity="1" fill-opacity="0" stroke="#000000" stroke-width="1" stroke-opacity="0"></use></g></g><g><use xlink:href="#e3wgbqMag4" opacity="1" fill="#ffffff" fill-opacity="1"></use><g><use xlink:href="#e3wgbqMag4" opacity="1" fill-opacity="0" stroke="#000000" stroke-width="1" stroke-opacity="0"></use></g></g><g><use xlink:href="#ciZVBUxIz" opacity="1" fill="#000000" fill-opacity="0"></use><g><use xlink:href="#ciZVBUxIz" opacity="1" fill-opacity="0" stroke="#000000" stroke-width="1" stroke-opacity="0"></use></g></g><g><use xlink:href="#a7fMnV7YPr" opacity="1" fill="#ffffff" fill-opacity="1"></use><g><use xlink:href="#a7fMnV7YPr" opacity="1" fill-opacity="0" stroke="#000000" stroke-width="1" stroke-opacity="0"></use></g></g><g><use xlink:href="#aOUvVsig1" opacity="1" fill="#000000" fill-opacity="0"></use><g><use xlink:href="#aOUvVsig1" opacity="1" fill-opacity="0" stroke="#000000" stroke-width="1" stroke-opacity="0"></use></g></g><g><use xlink:href="#agiKnMRgx" opacity="1" fill="#3391b2" fill-opacity="0"></use><g><use xlink:href="#agiKnMRgx" opacity="1" fill-opacity="0" stroke="#000000" stroke-width="1" stroke-opacity="0"></use></g></g><g><use xlink:href="#e1gbmZP7D3" opacity="1" fill="#000000" fill-opacity="0"></use><g><use xlink:href="#e1gbmZP7D3" opacity="1" fill-opacity="0" stroke="#000000" stroke-width="1" stroke-opacity="0"></use></g></g><g><use xlink:href="#d1QsCDpvXx" opacity="1" fill="#58a7f6" fill-opacity="0"></use><g><use xlink:href="#d1QsCDpvXx" opacity="1" fill-opacity="0" stroke="#000000" stroke-width="1" stroke-opacity="0"></use></g></g><g><use xlink:href="#liqr2HoMH" opacity="1" fill="#000000" fill-opacity="0"></use><g><use xlink:href="#liqr2HoMH" opacity="1" fill-opacity="0" stroke="#000000" stroke-width="1" stroke-opacity="0"></use></g></g><g><use xlink:href="#eXK3BTSBz" opacity="1" fill="#f1f3ce" fill-opacity="1"></use><g><use xlink:href="#eXK3BTSBz" opacity="1" fill-opacity="0" stroke="#000000" stroke-width="1" stroke-opacity="0"></use></g></g><g><use xlink:href="#d2euqsDJel" opacity="1" fill="#00293c" fill-opacity="1"></use><g><use xlink:href="#d2euqsDJel" opacity="1" fill-opacity="0" stroke="#000000" stroke-width="1" stroke-opacity="0"></use></g></g><g><use xlink:href="#d4ZsLUO1eB" opacity="1" fill="#f1f3ce" fill-opacity="1"></use><g><use xlink:href="#d4ZsLUO1eB" opacity="1" fill-opacity="0" stroke="#000000" stroke-width="1" stroke-opacity="0"></use></g></g><g><use xlink:href="#e9FRUzxSTb" opacity="1" fill="#00293c" fill-opacity="1"></use><g><use xlink:href="#e9FRUzxSTb" opacity="1" fill-opacity="0" stroke="#000000" stroke-width="1" stroke-opacity="0"></use></g></g><g><use xlink:href="#c7QKtrLnF" opacity="1" fill="#f1f3ce" fill-opacity="1"></use><g><use xlink:href="#c7QKtrLnF" opacity="1" fill-opacity="0" stroke="#000000" stroke-width="1" stroke-opacity="0"></use></g></g><g><use xlink:href="#avcts4r69" opacity="1" fill="#00293c" fill-opacity="1"></use><g><use xlink:href="#avcts4r69" opacity="1" fill-opacity="0" stroke="#000000" stroke-width="1" stroke-opacity="0"></use></g></g></g></g></svg>