<?xml version="1.0" encoding="UTF-8" standalone="no"?>
<!DOCTYPE svg PUBLIC "-//W3C//DTD SVG 1.1//EN" "http://www.w3.org/Graphics/SVG/1.1/DTD/svg11.dtd">
<svg version="1.1" xmlns="http://www.w3.org/2000/svg" xmlns:xlink="http://www.w3.org/1999/xlink" preserveAspectRatio="xMidYMid meet" viewBox="0 0 64 64" width="64" height="64"><defs><path d="M19.04 16.32L24.32 16.32L24.32 53.28L19.04 53.28L19.04 16.32Z" id="b1RIUZOoxy"></path><path d="M24.32 46.4L29.6 46.4L29.6 53.28L24.32 53.28L24.32 46.4Z" id="a4WjbWc67q"></path><path d="M24.32 16.32L29.6 16.32L29.6 19.52L24.32 19.52L24.32 16.32Z" id="e18MFARNr"></path><path d="M29.6 16.32L34.88 16.32L34.88 53.28L29.6 53.28L29.6 16.32Z" id="a28XC9Kv7r"></path><path d="M34.88 16.32L40.16 16.32L40.16 19.52L34.88 19.52L34.88 16.32Z" id="aysuSIWac"></path><path d="M34.88 46.4L40.16 46.4L40.16 53.28L34.88 53.28L34.88 46.4Z" id="c3f499xj8O"></path><path d="M40.16 16.32L45.44 16.32L45.44 53.28L40.16 53.28L40.16 16.32Z" id="cveOBQuj9"></path><path d="M15.68 13.12L48.32 13.12L48.32 16.32L15.68 16.32L15.68 13.12Z" id="diRXh6JF5"></path><path d="M25.6 9.92L38.4 9.92L38.4 13.12L25.6 13.12L25.6 9.92Z" id="a1RTaxJn0C"></path></defs><g><g><g><use xlink:href="#b1RIUZOoxy" opacity="1" fill="#ffffff" fill-opacity="0.99"></use></g><g><use xlink:href="#a4WjbWc67q" opacity="1" fill="#ffffff" fill-opacity="0.99"></use></g><g><use xlink:href="#e18MFARNr" opacity="1" fill="#ffffff" fill-opacity="0.99"></use></g><g><use xlink:href="#a28XC9Kv7r" opacity="1" fill="#ffffff" fill-opacity="0.99"></use></g><g><use xlink:href="#aysuSIWac" opacity="1" fill="#ffffff" fill-opacity="0.99"></use></g><g><use xlink:href="#c3f499xj8O" opacity="1" fill="#ffffff" fill-opacity="0.99"></use></g><g><use xlink:href="#cveOBQuj9" opacity="1" fill="#ffffff" fill-opacity="0.99"></use></g><g><use xlink:href="#diRXh6JF5" opacity="1" fill="#ffffff" fill-opacity="0.99"></use></g><g><use xlink:href="#a1RTaxJn0C" opacity="1" fill="#ffffff" fill-opacity="0.99"></use></g></g></g></svg>