<?xml version="1.0" encoding="UTF-8" standalone="no"?>
<!DOCTYPE svg PUBLIC "-//W3C//DTD SVG 1.1//EN" "http://www.w3.org/Graphics/SVG/1.1/DTD/svg11.dtd">
<svg version="1.1" xmlns="http://www.w3.org/2000/svg" xmlns:xlink="http://www.w3.org/1999/xlink" preserveAspectRatio="xMidYMid meet" viewBox="0 0 640 640" width="640" height="640"><defs><path d="M293.72 149.08L318 167.97L290.25 179.65L262.5 191.33L265.97 160.76L269.44 130.2L293.72 149.08Z" id="aeXOxKh7u"></path><path d="M284.39 245.94L262.04 199.82L316.66 206.12L371.27 212.41L339.01 252.24L306.75 292.07L284.39 245.94Z" id="bIXOA90li"></path><path d="M377.13 178.9L373.05 207.32L349.92 188.04L326.79 168.76L354 159.63L381.21 150.49L377.13 178.9Z" id="d2Fkfmwus9"></path><path d="M291.45 185.07L262.04 199.96L316.65 206.31L371.26 212.67L346.06 191.42L320.85 170.18L291.45 185.07Z" id="g1El5tZbRD"></path><path d="M443.98 260.73L443.88 195.13L412.64 203.1L381.4 211.07L412.74 268.7L444.09 326.34L443.98 260.73Z" id="a3lKSnqsVz"></path><path d="M504.02 222.42L490.38 170.18L468.67 181.6L446.96 193.02L482.3 233.85L517.65 274.68L504.02 222.42Z" id="droAO91L8"></path><path d="M518.72 190.11L492.38 168.83L509.17 157.62L525.96 146.42L535.51 178.9L545.06 211.39L518.72 190.11Z" id="b3jfypK4Zx"></path><path d="M156.91 217.95L179.5 145.93L216.12 171.13L252.74 196.34L193.53 243.15L134.32 289.97L156.91 217.95Z" id="a5JQ2U8h0A"></path><path d="M107.32 155.26L132.72 104.45L155.12 124.57L177.52 144.69L129.72 175.38L81.91 206.07L107.32 155.26Z" id="b3YLbyBaVe"></path><path d="M86.77 99.23L111.22 72.41L121.16 87.65L131.1 102.88L96.71 114.47L62.32 126.05L86.77 99.23Z" id="b4stfMMV34"></path><path d="M270.93 322.64L282.54 297.51L252.74 301.77L222.93 306.03L241.12 326.9L259.32 347.77L270.93 322.64Z" id="cNxeBd8Kf"></path><path d="M240.45 252.39L227.05 298.71L262.04 295.51L297.03 292.3L275.44 249.18L253.85 206.07L240.45 252.39Z" id="e4C55bqYjm"></path><path d="M344.61 259.29L313.28 297.95L347.34 308.97L381.4 320L378.67 270.31L375.94 220.62L344.61 259.29Z" id="a12yLkOFWx"></path><path d="M320.85 330.67L340.17 314.09L312.72 306.54L285.28 299L293.4 323.13L301.53 347.26L320.85 330.67Z" id="blkKH0Ng9"></path><path d="M364.51 345.84L381.21 329.45L362.24 322.54L343.27 315.64L345.53 338.93L347.8 362.23L364.51 345.84Z" id="a1m0f9Q8wQ"></path><path d="M238.19 332.19L252.74 349.53L237.28 354.81L221.82 360.09L222.73 337.47L223.63 314.85L238.19 332.19Z" id="a2SsftYS2x"></path><path d="M273.2 329.77L267.31 347.26L281.79 346.11L296.28 344.95L287.69 328.62L279.1 312.29L273.2 329.77Z" id="gpWEhtODO"></path><path d="M325.25 335.44L312.75 347.25L326.87 352.57L340.99 357.88L339.38 340.75L337.76 323.62L325.25 335.44Z" id="bjRBTkwYk"></path><path d="M255.49 378.94L255.93 353L239.43 358.56L222.93 364.13L238.99 384.5L255.05 404.88L255.49 378.94Z" id="a2zDDISNH"></path><path d="M299.22 384.05L301.37 348.65L281.71 353.21L262.04 357.77L279.55 388.61L297.07 419.45L299.22 384.05Z" id="c1CXzGW23b"></path><path d="M323.44 390.54L346.19 366.71L325.77 357.68L305.36 348.65L303.03 381.51L300.7 414.37L323.44 390.54Z" id="dnN3xY6el"></path><path d="M367.08 350.61L354.13 363.76L367.66 369.06L381.18 374.36L380.61 355.92L380.03 337.47L367.08 350.61Z" id="b162FSrlAX"></path><path d="M362.24 399.17L379.31 379.63L363.12 373.24L346.92 366.84L346.04 392.77L345.17 418.7L362.24 399.17Z" id="a5sY9f29cn"></path><path d="M81.76 61.5L102.19 46.64L106.75 57.8L111.32 68.96L86.32 72.66L61.33 76.36L81.76 61.5Z" id="j29gbK2iIB"></path><path d="M83.89 34.73L99.59 28.73L100.6 36.56L101.61 44.4L84.9 42.57L68.2 40.74L83.89 34.73Z" id="av4aStqqB"></path><path d="M558.24 141.83L548.49 121.87L537.83 133.08L527.17 144.28L547.58 153.03L567.99 161.79L558.24 141.83Z" id="ef232RbTv"></path><path d="M135.64 179.04L101.13 200.87L122.75 217.78L144.37 234.7L157.26 195.96L170.15 157.21L135.64 179.04Z" id="e1lYL102Pl"></path><path d="M100.08 117.74L76.2 125.76L89.04 140.38L101.88 155.01L112.92 132.36L123.96 109.72L100.08 117.74Z" id="a8tBrt6WUM"></path><path d="M86.38 91.63L71.63 106.9L65.46 95.28L59.3 83.66L80.21 80.01L101.13 76.36L86.38 91.63Z" id="iRfb0iaxo"></path><path d="M87.03 53.13L79.38 59.58L77.03 53.32L74.67 47.06L84.67 46.87L94.67 46.68L87.03 53.13Z" id="exUvIVHoV"></path><path d="M474.33 234.33L498.51 264.5L474.13 272.99L449.75 281.48L449.95 242.82L450.16 204.15L474.33 234.33Z" id="b2pmfkuIoT"></path><path d="M516.78 196.16L535.05 210.69L522.92 218.68L510.79 226.67L504.65 204.15L498.51 181.63L516.78 196.16Z" id="a8QBLuqsaE"></path><path d="M545.06 157.45L556.71 163.9L547.55 170.53L538.39 177.16L535.9 164.08L533.41 150.99L545.06 157.45Z" id="aPlZyeCV1"></path><path d="M42.57 271.71L72.94 291.3L46.45 332.37L16.07 312.78L42.57 271.71Z" id="h5jS2ovvBU"></path><path d="M89.71 254.13L94.53 236.56L106.43 246.89L118.33 257.23L101.61 264.47L84.88 271.71L89.71 254.13Z" id="c1BwvFOUTi"></path><path d="M28.55 159.37L38.44 150.99L41.47 158.43L44.51 165.87L31.59 166.81L18.66 167.74L28.55 159.37Z" id="myvsBvNl"></path><path d="M42.47 192.57L56.46 213.23L27.63 232.76L13.63 212.1L42.47 192.57Z" id="c1vdewNue6"></path><path d="M140.9 306.81L187.82 328.35L158.23 392.77L111.32 371.22L140.9 306.81Z" id="b3Hl5rMtff"></path><path d="M84.26 325.53L86.18 310.45L96.6 316.64L107.01 322.83L94.67 331.72L82.34 340.61L84.26 325.53Z" id="b8NcW36iN"></path><path d="M479.25 342.15L482.3 320.4L470.31 322.09L458.31 323.77L467.26 343.84L476.2 363.9L479.25 342.15Z" id="b5JULhnRj"></path><path d="M522.46 379.13L512.28 364.54L522.56 361.34L532.83 358.14L532.74 375.93L532.65 393.73L522.46 379.13Z" id="hpp4znU2m"></path><path d="M510.48 299.59L545.16 278.91L572.63 324.99L537.95 345.66L510.48 299.59Z" id="cYyypH7ui"></path><path d="M598.52 228.07L573.63 222.24L580.72 209.73L587.8 197.21L605.61 215.56L623.42 233.9L598.52 228.07Z" id="b1CMcK4S5r"></path><path d="M537.13 249.36L550.63 235.44L576.28 260.3L562.78 274.23L537.13 249.36Z" id="l3WRy1XCX"></path><path d="M259.11 381.51L258.76 399.11L267.9 396.77L277.03 394.42L268.25 379.16L259.47 363.9L259.11 381.51Z" id="a3WWTaZ16u"></path><path d="M333.81 386.33L323.68 398.93L332.43 402.44L341.18 405.95L342.57 389.84L343.95 373.73L333.81 386.33Z" id="aUBA1QStb"></path><path d="M273.04 428.06L258.76 403.26L269.88 399.62L281 395.98L284.15 424.42L287.31 452.86L273.04 428.06Z" id="d3GbEz34qu"></path><path d="M315.95 425.81L320.12 401.08L330.55 405.42L340.99 409.77L326.38 430.16L311.77 450.55L315.95 425.81Z" id="a2uf0Q1uf7"></path><path d="M601.02 252.31L632.56 274.11L616.7 297.05L585.16 275.24L601.02 252.31Z" id="b2O41aDdl"></path><path d="M11.5 107.54L35.09 100.15L40.32 116.82L16.73 124.21L11.5 107.54Z" id="g2Ojmmd1um"></path><path d="M390 163.94L378.22 166.1L379.44 158.3L380.65 150.49L391.21 156.13L401.77 161.77L390 163.94Z" id="b2vw40orEm"></path><path d="M254.2 132.9L269.68 130.2L268.72 138.89L267.77 147.57L253.25 141.58L238.73 135.59L254.2 132.9Z" id="avJuehX2S"></path></defs><g><g><g><use xlink:href="#aeXOxKh7u" opacity="1" fill="#00293c" fill-opacity="1"></use></g><g><use xlink:href="#bIXOA90li" opacity="1" fill="#1e656d" fill-opacity="1"></use></g><g><use xlink:href="#d2Fkfmwus9" opacity="1" fill="#00293c" fill-opacity="1"></use></g><g><use xlink:href="#g1El5tZbRD" opacity="1" fill="#00293c" fill-opacity="1"></use></g><g><use xlink:href="#a3lKSnqsVz" opacity="1" fill="#00293c" fill-opacity="1"></use></g><g><use xlink:href="#droAO91L8" opacity="1" fill="#00293c" fill-opacity="1"></use></g><g><use xlink:href="#b3jfypK4Zx" opacity="1" fill="#00293c" fill-opacity="1"></use></g><g><use xlink:href="#a5JQ2U8h0A" opacity="1" fill="#00293c" fill-opacity="1"></use></g><g><use xlink:href="#b3YLbyBaVe" opacity="1" fill="#00293c" fill-opacity="1"></use></g><g><use xlink:href="#b4stfMMV34" opacity="1" fill="#00293c" fill-opacity="1"></use></g><g><use xlink:href="#cNxeBd8Kf" opacity="1" fill="#1e656d" fill-opacity="1"></use></g><g><use xlink:href="#e4C55bqYjm" opacity="1" fill="#f1f3ce" fill-opacity="1"></use></g><g><use xlink:href="#a12yLkOFWx" opacity="1" fill="#f1f3ce" fill-opacity="1"></use></g><g><use xlink:href="#blkKH0Ng9" opacity="1" fill="#f1f3ce" fill-opacity="1"></use></g><g><use xlink:href="#a1m0f9Q8wQ" opacity="1" fill="#1e656d" fill-opacity="1"></use></g><g><use xlink:href="#a2SsftYS2x" opacity="1" fill="#00293c" fill-opacity="1"></use></g><g><use xlink:href="#gpWEhtODO" opacity="1" fill="#00293c" fill-opacity="1"></use></g><g><use xlink:href="#bjRBTkwYk" opacity="1" fill="#00293c" fill-opacity="1"></use></g><g><use xlink:href="#a2zDDISNH" opacity="1" fill="#00293c" fill-opacity="1"></use></g><g><use xlink:href="#c1CXzGW23b" opacity="1" fill="#00293c" fill-opacity="1"></use></g><g><use xlink:href="#dnN3xY6el" opacity="1" fill="#00293c" fill-opacity="1"></use></g><g><use xlink:href="#b162FSrlAX" opacity="1" fill="#00293c" fill-opacity="1"></use></g><g><use xlink:href="#a5sY9f29cn" opacity="1" fill="#00293c" fill-opacity="1"></use></g><g><use xlink:href="#j29gbK2iIB" opacity="1" fill="#00293c" fill-opacity="1"></use></g><g><use xlink:href="#av4aStqqB" opacity="1" fill="#00293c" fill-opacity="1"></use></g><g><use xlink:href="#ef232RbTv" opacity="1" fill="#00293c" fill-opacity="1"></use></g><g><use xlink:href="#e1lYL102Pl" opacity="1" fill="#1e656d" fill-opacity="1"></use></g><g><use xlink:href="#a8tBrt6WUM" opacity="1" fill="#f1f3ce" fill-opacity="1"></use></g><g><use xlink:href="#iRfb0iaxo" opacity="1" fill="#1e656d" fill-opacity="1"></use></g><g><use xlink:href="#exUvIVHoV" opacity="1" fill="#12938a" fill-opacity="1"></use></g><g><use xlink:href="#b2pmfkuIoT" opacity="1" fill="#1e656d" fill-opacity="1"></use></g><g><use xlink:href="#a8QBLuqsaE" opacity="1" fill="#f1f3ce" fill-opacity="1"></use></g><g><use xlink:href="#aPlZyeCV1" opacity="1" fill="#1e656d" fill-opacity="1"></use></g><g><use xlink:href="#h5jS2ovvBU" opacity="1" fill="#f62a00" fill-opacity="1"></use></g><g><use xlink:href="#c1BwvFOUTi" opacity="1" fill="#12938a" fill-opacity="1"></use></g><g><use xlink:href="#myvsBvNl" opacity="1" fill="#f62a00" fill-opacity="1"></use></g><g><use xlink:href="#c1vdewNue6" opacity="1" fill="#f1f3ce" fill-opacity="1"></use></g><g><use xlink:href="#b3Hl5rMtff" opacity="1" fill="#f1f3ce" fill-opacity="1"></use></g><g><use xlink:href="#b8NcW36iN" opacity="1" fill="#00293c" fill-opacity="1"></use></g><g><use xlink:href="#b5JULhnRj" opacity="1" fill="#f62a00" fill-opacity="1"></use></g><g><use xlink:href="#hpp4znU2m" opacity="1" fill="#1e656d" fill-opacity="1"></use></g><g><use xlink:href="#cYyypH7ui" opacity="1" fill="#f1f3ce" fill-opacity="1"></use></g><g><use xlink:href="#b1CMcK4S5r" opacity="1" fill="#1e656d" fill-opacity="1"></use></g><g><use xlink:href="#l3WRy1XCX" opacity="1" fill="#f62a00" fill-opacity="1"></use></g><g><use xlink:href="#a3WWTaZ16u" opacity="1" fill="#1e656d" fill-opacity="1"></use></g><g><use xlink:href="#aUBA1QStb" opacity="1" fill="#1e656d" fill-opacity="1"></use></g><g><use xlink:href="#d3GbEz34qu" opacity="1" fill="#00293c" fill-opacity="1"></use></g><g><use xlink:href="#a2uf0Q1uf7" opacity="1" fill="#00293c" fill-opacity="1"></use></g><g><use xlink:href="#b2O41aDdl" opacity="1" fill="#f1f3ce" fill-opacity="1"></use></g><g><use xlink:href="#g2Ojmmd1um" opacity="1" fill="#f1f3ce" fill-opacity="1"></use></g><g><use xlink:href="#b2vw40orEm" opacity="1" fill="#00293c" fill-opacity="1"></use></g><g><use xlink:href="#avJuehX2S" opacity="1" fill="#00293c" fill-opacity="1"></use></g></g></g></svg>