<?xml version="1.0" encoding="UTF-8" standalone="no"?>
<!DOCTYPE svg PUBLIC "-//W3C//DTD SVG 1.1//EN" "http://www.w3.org/Graphics/SVG/1.1/DTD/svg11.dtd">
<svg version="1.1" xmlns="http://www.w3.org/2000/svg" xmlns:xlink="http://www.w3.org/1999/xlink" preserveAspectRatio="xMidYMid meet" viewBox="0 0 600 1024" width="600" height="1024"><defs><path d="M279.62 457.89L255.06 468.22L258.13 441.17L261.2 414.12L282.69 430.83L304.18 447.55L279.62 457.89Z" id="b2cYDOd2rt"></path><path d="M279.62 457.89L255.06 468.22L258.13 441.17L261.2 414.12L282.69 430.83L304.18 447.55L279.62 457.89Z" id="f4f7rd9vSt"></path><path d="M302.99 481.31L351.32 486.88L322.77 522.13L294.22 557.38L274.43 516.55L254.65 475.74L302.99 481.31Z" id="dqTgzp8pL"></path><path d="M302.99 481.31L351.32 486.88L322.77 522.13L294.22 557.38L274.43 516.55L254.65 475.74L302.99 481.31Z" id="ecN5ZYlVK"></path><path d="M332.43 465.31L311.96 448.25L336.04 440.17L360.12 432.08L356.51 457.22L352.9 482.37L332.43 465.31Z" id="ci2B93Pgs"></path><path d="M332.43 465.31L311.96 448.25L336.04 440.17L360.12 432.08L356.51 457.22L352.9 482.37L332.43 465.31Z" id="a1aAPJuOdu"></path><path d="M302.98 481.48L351.31 487.11L329.01 468.3L306.7 449.51L280.68 462.68L254.65 475.86L302.98 481.48Z" id="a2nk4Q5ULB"></path><path d="M302.98 481.48L351.31 487.11L329.01 468.3L306.7 449.51L280.68 462.68L254.65 475.86L302.98 481.48Z" id="c11MOs0uxl"></path><path d="M387.93 478.64L360.29 485.69L388.02 536.7L415.77 587.71L415.67 529.64L415.58 471.59L387.93 478.64Z" id="d5W5i7o6Vi"></path><path d="M387.93 478.64L360.29 485.69L388.02 536.7L415.77 587.71L415.67 529.64L415.58 471.59L387.93 478.64Z" id="a1BhUxSUuH"></path><path d="M437.52 459.61L418.31 469.72L449.58 505.85L480.87 541.99L468.8 495.74L456.73 449.51L437.52 459.61Z" id="a5XqT6I46W"></path><path d="M437.52 459.61L418.31 469.72L449.58 505.85L480.87 541.99L468.8 495.74L456.73 449.51L437.52 459.61Z" id="g3cNQfSfFs"></path><path d="M473.36 438.39L488.22 428.48L496.67 457.22L505.12 485.98L481.81 467.14L458.5 448.31L473.36 438.39Z" id="e42qDruVWA"></path><path d="M473.36 438.39L488.22 428.48L496.67 457.22L505.12 485.98L481.81 467.14L458.5 448.31L473.36 438.39Z" id="awjCX9fc"></path><path d="M214.02 450.35L246.42 472.66L194.02 514.08L141.62 555.52L161.61 491.78L181.61 428.05L214.02 450.35Z" id="c7ZkoRheoB"></path><path d="M214.02 450.35L246.42 472.66L194.02 514.08L141.62 555.52L161.61 491.78L181.61 428.05L214.02 450.35Z" id="j6zLKn79fY"></path><path d="M160.03 409.14L179.85 426.95L137.55 454.11L95.24 481.27L117.73 436.3L140.21 391.34L160.03 409.14Z" id="dbATHxHVHW"></path><path d="M160.03 409.14L179.85 426.95L137.55 454.11L95.24 481.27L117.73 436.3L140.21 391.34L160.03 409.14Z" id="e4yp7GSxWJ"></path><path d="M129.98 376.47L138.77 389.95L108.34 400.2L77.9 410.45L99.54 386.72L121.18 362.98L129.98 376.47Z" id="b3EVtB22Vf"></path><path d="M129.98 376.47L138.77 389.95L108.34 400.2L77.9 410.45L99.54 386.72L121.18 362.98L129.98 376.47Z" id="a1NhRF6mfe"></path><path d="M246.42 565.96L220.04 569.73L236.14 588.2L252.25 606.67L262.52 584.43L272.8 562.19L246.42 565.96Z" id="bG1pDSGL5"></path><path d="M246.42 565.96L220.04 569.73L236.14 588.2L252.25 606.67L262.52 584.43L272.8 562.19L246.42 565.96Z" id="b41b3xlbE"></path><path d="M254.65 560.42L285.62 557.58L266.51 519.42L247.41 481.27L235.55 522.26L223.69 563.25L254.65 560.42Z" id="b40UJgHrBi"></path><path d="M254.65 560.42L285.62 557.58L266.51 519.42L247.41 481.27L235.55 522.26L223.69 563.25L254.65 560.42Z" id="a4tT4ilhy"></path><path d="M330.14 572.33L360.29 582.1L357.87 538.12L355.45 494.15L327.73 528.37L300 562.58L330.14 572.33Z" id="h26EY57C25"></path><path d="M330.14 572.33L360.29 582.1L357.87 538.12L355.45 494.15L327.73 528.37L300 562.58L330.14 572.33Z" id="b119DpG6YG"></path><path d="M299.51 570.18L275.22 563.51L282.41 584.87L289.6 606.22L306.7 591.54L323.8 576.87L299.51 570.18Z" id="a2aN1ZaSpR"></path><path d="M299.51 570.18L275.22 563.51L282.41 584.87L289.6 606.22L306.7 591.54L323.8 576.87L299.51 570.18Z" id="b1pz3kHzW8"></path><path d="M343.33 584.34L326.54 578.24L328.54 598.85L330.55 619.47L345.34 604.96L360.12 590.46L343.33 584.34Z" id="g7XC85vjA"></path><path d="M343.33 584.34L326.54 578.24L328.54 598.85L330.55 619.47L345.34 604.96L360.12 590.46L343.33 584.34Z" id="a1Jd045ArY"></path><path d="M232.74 612.9L219.06 617.57L219.86 597.56L220.66 577.54L233.55 592.88L246.42 608.23L232.74 612.9Z" id="afHDPUNZb"></path><path d="M232.74 612.9L219.06 617.57L219.86 597.56L220.66 577.54L233.55 592.88L246.42 608.23L232.74 612.9Z" id="d2T6ElE3uM"></path><path d="M272.13 605.2L284.96 604.18L277.35 589.72L269.75 575.27L264.53 590.74L259.32 606.22L272.13 605.2Z" id="b4CCl45wv"></path><path d="M272.13 605.2L284.96 604.18L277.35 589.72L269.75 575.27L264.53 590.74L259.32 606.22L272.13 605.2Z" id="f5EtUHoqU5"></path><path d="M312.03 610.92L324.52 615.62L323.1 600.46L321.67 585.3L310.59 595.76L299.53 606.21L312.03 610.92Z" id="afL4EVH6Q"></path><path d="M312.03 610.92L324.52 615.62L323.1 600.46L321.67 585.3L310.59 595.76L299.53 606.21L312.03 610.92Z" id="e4cCyuJeBX"></path><path d="M234.64 616.22L220.04 621.15L234.25 639.18L248.47 657.21L248.86 634.26L249.25 611.3L234.64 616.22Z" id="b4GejCzM7"></path><path d="M234.64 616.22L220.04 621.15L234.25 639.18L248.47 657.21L248.86 634.26L249.25 611.3L234.64 616.22Z" id="f1GESD9pkX"></path><path d="M272.06 611.49L254.65 615.52L270.15 642.81L285.65 670.11L287.56 638.78L289.46 607.45L272.06 611.49Z" id="k6s7OnCgm"></path><path d="M272.06 611.49L254.65 615.52L270.15 642.81L285.65 670.11L287.56 638.78L289.46 607.45L272.06 611.49Z" id="a26D4H94cq"></path><path d="M311.05 615.44L292.99 607.45L290.93 636.53L288.87 665.61L308.99 644.52L329.13 623.43L311.05 615.44Z" id="aWeS0xVr4"></path><path d="M311.05 615.44L292.99 607.45L290.93 636.53L288.87 665.61L308.99 644.52L329.13 623.43L311.05 615.44Z" id="ax0ogaC2V"></path><path d="M348.13 625.51L360.09 630.2L359.59 613.88L359.07 597.56L347.61 609.19L336.15 620.82L348.13 625.51Z" id="a61TVtFyn"></path><path d="M348.13 625.51L360.09 630.2L359.59 613.88L359.07 597.56L347.61 609.19L336.15 620.82L348.13 625.51Z" id="acRKQN9Wy"></path><path d="M344.11 629.21L329.77 623.55L328.99 646.5L328.22 669.44L343.33 652.16L358.44 634.87L344.11 629.21Z" id="brS3UMAyR"></path><path d="M344.11 629.21L329.77 623.55L328.99 646.5L328.22 669.44L343.33 652.16L358.44 634.87L344.11 629.21Z" id="d1LevDcjp7"></path><path d="M117.22 350.05L121.27 359.93L99.14 363.2L77.03 366.48L95.11 353.33L113.19 340.17L117.22 350.05Z" id="a1Av0BwnvB"></path><path d="M117.22 350.05L121.27 359.93L99.14 363.2L77.03 366.48L95.11 353.33L113.19 340.17L117.22 350.05Z" id="bPPMyYt03"></path><path d="M111.78 331.25L112.67 338.19L97.89 336.57L83.11 334.95L96.99 329.63L110.89 324.32L111.78 331.25Z" id="a2Yg9XIlDe"></path><path d="M111.78 331.25L112.67 338.19L97.89 336.57L83.11 334.95L96.99 329.63L110.89 324.32L111.78 331.25Z" id="d28aaVRKVx"></path><path d="M498.72 416.67L489.29 426.59L507.35 434.33L525.42 442.08L516.79 424.42L508.16 406.75L498.72 416.67Z" id="dFyBGP55N"></path><path d="M498.72 416.67L489.29 426.59L507.35 434.33L525.42 442.08L516.79 424.42L508.16 406.75L498.72 416.67Z" id="a1zcrLCB2e"></path><path d="M131.38 491.63L150.52 506.61L161.92 472.32L173.33 438.03L142.79 457.35L112.25 476.67L131.38 491.63Z" id="g1uVcWkkDi"></path><path d="M131.38 491.63L150.52 506.61L161.92 472.32L173.33 438.03L142.79 457.35L112.25 476.67L131.38 491.63Z" id="b5hsTQb5a8"></path><path d="M101.55 423.13L112.91 436.08L122.68 416.04L132.45 396L111.32 403.1L90.19 410.2L101.55 423.13Z" id="a2by2z8PUd"></path><path d="M101.55 423.13L112.91 436.08L122.68 416.04L132.45 396L111.32 403.1L90.19 410.2L101.55 423.13Z" id="f18GYJOpL"></path><path d="M80.68 383.22L75.23 372.94L93.74 369.71L112.25 366.48L99.2 379.99L86.14 393.5L80.68 383.22Z" id="h2eHevyyu"></path><path d="M80.68 383.22L75.23 372.94L93.74 369.71L112.25 366.48L99.2 379.99L86.14 393.5L80.68 383.22Z" id="cWYfDP2B8"></path><path d="M90.92 346.09L88.83 340.55L97.68 340.38L106.53 340.21L99.77 345.92L93 351.63L90.92 346.09Z" id="a2Elj66q4s"></path><path d="M90.92 346.09L88.83 340.55L97.68 340.38L106.53 340.21L99.77 345.92L93 351.63L90.92 346.09Z" id="c1hoUDievZ"></path><path d="M442.35 540.49L420.78 548.01L420.95 513.79L421.14 479.57L442.53 506.28L463.93 532.98L442.35 540.49Z" id="b33zTHH46C"></path><path d="M442.35 540.49L420.78 548.01L420.95 513.79L421.14 479.57L442.53 506.28L463.93 532.98L442.35 540.49Z" id="b1e4V5lDZf"></path><path d="M485.53 492.43L474.79 499.5L469.36 479.57L463.93 459.64L480.1 472.5L496.26 485.36L485.53 492.43Z" id="gvD6U8V7n"></path><path d="M485.53 492.43L474.79 499.5L469.36 479.57L463.93 459.64L480.1 472.5L496.26 485.36L485.53 492.43Z" id="k4jyXDwiBr"></path><path d="M507.33 449.82L499.22 455.68L497.02 444.11L494.81 432.52L505.12 438.24L515.43 443.95L507.33 449.82Z" id="e3xAkQadqW"></path><path d="M507.33 449.82L499.22 455.68L497.02 444.11L494.81 432.52L505.12 438.24L515.43 443.95L507.33 449.82Z" id="d1MFJIDeWG"></path><path d="M63.86 593.04L36.97 575.71L60.43 539.36L87.3 556.7L63.86 593.04Z" id="dttCp778a"></path><path d="M63.86 593.04L36.97 575.71L60.43 539.36L87.3 556.7L63.86 593.04Z" id="bcAqDZqhs"></path><path d="M116.94 517.39L127.47 526.54L112.67 532.95L97.87 539.36L102.14 523.8L106.41 508.25L116.94 517.39Z" id="a6b7JgCZpZ"></path><path d="M116.94 517.39L127.47 526.54L112.67 532.95L97.87 539.36L102.14 523.8L106.41 508.25L116.94 517.39Z" id="amedfDGU"></path><path d="M59.45 439.11L62.14 445.69L50.71 446.52L39.27 447.35L48.02 439.94L56.77 432.52L59.45 439.11Z" id="cYZ5V7W4m"></path><path d="M59.45 439.11L62.14 445.69L50.71 446.52L39.27 447.35L48.02 439.94L56.77 432.52L59.45 439.11Z" id="bmn7PdrsC"></path><path d="M47.2 504.89L34.81 486.61L60.34 469.32L72.72 487.61L47.2 504.89Z" id="kE7sBsj2y"></path><path d="M47.2 504.89L34.81 486.61L60.34 469.32L72.72 487.61L47.2 504.89Z" id="h27NoIYqk7"></path><path d="M162.78 646.5L121.27 627.42L147.45 570.42L188.97 589.49L162.78 646.5Z" id="a1Jc6px8wi"></path><path d="M162.78 646.5L121.27 627.42L147.45 570.42L188.97 589.49L162.78 646.5Z" id="c3QbnDqoZf"></path><path d="M108.24 579.12L117.45 584.6L106.53 592.47L95.62 600.34L97.32 586.99L99.02 573.64L108.24 579.12Z" id="a1kTD7gzQc"></path><path d="M108.24 579.12L117.45 584.6L106.53 592.47L95.62 600.34L97.32 586.99L99.02 573.64L108.24 579.12Z" id="b3VZPfrqHY"></path><path d="M438.97 583.95L428.35 585.43L436.27 603.19L444.18 620.95L446.88 601.7L449.58 582.45L438.97 583.95Z" id="e6BL4858Ts"></path><path d="M438.97 583.95L428.35 585.43L436.27 603.19L444.18 620.95L446.88 601.7L449.58 582.45L438.97 583.95Z" id="byhPINCHH"></path><path d="M485.21 618.68L494.3 615.85L494.22 631.59L494.14 647.35L485.12 634.42L476.11 621.51L485.21 618.68Z" id="bf3oLVFAq"></path><path d="M485.21 618.68L494.3 615.85L494.22 631.59L494.14 647.35L485.12 634.42L476.11 621.51L485.21 618.68Z" id="aahM5GmWlW"></path><path d="M529.52 586.51L498.83 604.8L474.52 564.03L505.21 545.73L529.52 586.51Z" id="hOnH8mZHv"></path><path d="M529.52 586.51L498.83 604.8L474.52 564.03L505.21 545.73L529.52 586.51Z" id="a1jYYSRwsE"></path><path d="M536.68 484.51L542.95 473.43L558.71 489.67L574.47 505.9L552.43 500.74L530.41 495.58L536.68 484.51Z" id="aj48VTsH0"></path><path d="M536.68 484.51L542.95 473.43L558.71 489.67L574.47 505.9L552.43 500.74L530.41 495.58L536.68 484.51Z" id="b5yRgQhxje"></path><path d="M532.75 529.26L520.81 541.59L498.11 519.58L510.05 507.26L532.75 529.26Z" id="b66SXSuqQ"></path><path d="M532.75 529.26L520.81 541.59L498.11 519.58L510.05 507.26L532.75 529.26Z" id="dd3vNoBn2"></path><path d="M259.84 650.04L267.92 647.96L260.15 634.45L252.38 620.95L252.06 636.53L251.75 652.11L259.84 650.04Z" id="gS3qujGfG"></path><path d="M259.84 650.04L267.92 647.96L260.15 634.45L252.38 620.95L252.06 636.53L251.75 652.11L259.84 650.04Z" id="b1g9h7m2a"></path><path d="M316.95 655.05L324.69 658.16L325.92 643.9L327.14 629.65L318.17 640.8L309.2 651.95L316.95 655.05Z" id="bf2630Lg6"></path><path d="M316.95 655.05L324.69 658.16L325.92 643.9L327.14 629.65L318.17 640.8L309.2 651.95L316.95 655.05Z" id="a5vmwM9iJ"></path><path d="M261.59 652.56L271.43 649.34L274.22 674.51L277.02 699.68L264.39 677.73L251.75 655.78L261.59 652.56Z" id="e3BghCx5ae"></path><path d="M261.59 652.56L271.43 649.34L274.22 674.51L277.02 699.68L264.39 677.73L251.75 655.78L261.59 652.56Z" id="a1i3uvc4XW"></path><path d="M315.28 657.69L324.52 661.54L311.59 679.59L298.66 697.63L302.36 675.74L306.05 653.85L315.28 657.69Z" id="ciLsL4DMT"></path><path d="M315.28 657.69L324.52 661.54L311.59 679.59L298.66 697.63L302.36 675.74L306.05 653.85L315.28 657.69Z" id="e2J3oaLCUz"></path><path d="M568.52 561.79L540.61 542.48L554.65 522.19L582.56 541.48L568.52 561.79Z" id="b1vsmQvqKB"></path><path d="M568.52 561.79L540.61 542.48L554.65 522.19L582.56 541.48L568.52 561.79Z" id="a2mGUp8uw3"></path><path d="M58.43 402.28L37.56 408.82L32.93 394.07L53.81 387.53L58.43 402.28Z" id="a15J8ytVMy"></path><path d="M58.43 402.28L37.56 408.82L32.93 394.07L53.81 387.53L58.43 402.28Z" id="b1ci0ppXJ"></path><path d="M358.55 438.99L359.62 432.08L368.97 437.07L378.31 442.06L367.9 443.98L357.47 445.9L358.55 438.99Z" id="a2FWkGeX9"></path><path d="M358.55 438.99L359.62 432.08L368.97 437.07L378.31 442.06L367.9 443.98L357.47 445.9L358.55 438.99Z" id="g5w68Sqcr4"></path><path d="M260.57 421.82L259.72 429.5L246.87 424.2L234.02 418.89L247.72 416.51L261.42 414.12L260.57 421.82Z" id="b3DEp8N6dP"></path><path d="M260.57 421.82L259.72 429.5L246.87 424.2L234.02 418.89L247.72 416.51L261.42 414.12L260.57 421.82Z" id="c2NZLO44Wt"></path></defs><g><g><g><use xlink:href="#b2cYDOd2rt" opacity="1" fill="#00293c" fill-opacity="1"></use><g><use xlink:href="#b2cYDOd2rt" opacity="1" fill-opacity="0" stroke="#000000" stroke-width="1" stroke-opacity="0"></use></g></g><g><use xlink:href="#f4f7rd9vSt" opacity="1" fill="#000000" fill-opacity="0"></use><g><use xlink:href="#f4f7rd9vSt" opacity="1" fill-opacity="0" stroke="#000000" stroke-width="1" stroke-opacity="0"></use></g></g><g><use xlink:href="#dqTgzp8pL" opacity="1" fill="#1e656d" fill-opacity="1"></use><g><use xlink:href="#dqTgzp8pL" opacity="1" fill-opacity="0" stroke="#000000" stroke-width="1" stroke-opacity="0"></use></g></g><g><use xlink:href="#ecN5ZYlVK" opacity="1" fill="#000000" fill-opacity="0"></use><g><use xlink:href="#ecN5ZYlVK" opacity="1" fill-opacity="0" stroke="#000000" stroke-width="1" stroke-opacity="0"></use></g></g><g><use xlink:href="#ci2B93Pgs" opacity="1" fill="#00293c" fill-opacity="1"></use><g><use xlink:href="#ci2B93Pgs" opacity="1" fill-opacity="0" stroke="#000000" stroke-width="1" stroke-opacity="0"></use></g></g><g><use xlink:href="#a1aAPJuOdu" opacity="1" fill="#000000" fill-opacity="0"></use><g><use xlink:href="#a1aAPJuOdu" opacity="1" fill-opacity="0" stroke="#000000" stroke-width="1" stroke-opacity="0"></use></g></g><g><use xlink:href="#a2nk4Q5ULB" opacity="1" fill="#00293c" fill-opacity="1"></use><g><use xlink:href="#a2nk4Q5ULB" opacity="1" fill-opacity="0" stroke="#000000" stroke-width="1" stroke-opacity="0"></use></g></g><g><use xlink:href="#c11MOs0uxl" opacity="1" fill="#000000" fill-opacity="0"></use><g><use xlink:href="#c11MOs0uxl" opacity="1" fill-opacity="0" stroke="#000000" stroke-width="1" stroke-opacity="0"></use></g></g><g><use xlink:href="#d5W5i7o6Vi" opacity="1" fill="#00293c" fill-opacity="1"></use><g><use xlink:href="#d5W5i7o6Vi" opacity="1" fill-opacity="0" stroke="#000000" stroke-width="1" stroke-opacity="0"></use></g></g><g><use xlink:href="#a1BhUxSUuH" opacity="1" fill="#000000" fill-opacity="0"></use><g><use xlink:href="#a1BhUxSUuH" opacity="1" fill-opacity="0" stroke="#000000" stroke-width="1" stroke-opacity="0"></use></g></g><g><use xlink:href="#a5XqT6I46W" opacity="1" fill="#00293c" fill-opacity="1"></use><g><use xlink:href="#a5XqT6I46W" opacity="1" fill-opacity="0" stroke="#000000" stroke-width="1" stroke-opacity="0"></use></g></g><g><use xlink:href="#g3cNQfSfFs" opacity="1" fill="#000000" fill-opacity="0"></use><g><use xlink:href="#g3cNQfSfFs" opacity="1" fill-opacity="0" stroke="#000000" stroke-width="1" stroke-opacity="0"></use></g></g><g><use xlink:href="#e42qDruVWA" opacity="1" fill="#00293c" fill-opacity="1"></use><g><use xlink:href="#e42qDruVWA" opacity="1" fill-opacity="0" stroke="#000000" stroke-width="1" stroke-opacity="0"></use></g></g><g><use xlink:href="#awjCX9fc" opacity="1" fill="#000000" fill-opacity="0"></use><g><use xlink:href="#awjCX9fc" opacity="1" fill-opacity="0" stroke="#000000" stroke-width="1" stroke-opacity="0"></use></g></g><g><use xlink:href="#c7ZkoRheoB" opacity="1" fill="#00293c" fill-opacity="1"></use><g><use xlink:href="#c7ZkoRheoB" opacity="1" fill-opacity="0" stroke="#000000" stroke-width="1" stroke-opacity="0"></use></g></g><g><use xlink:href="#j6zLKn79fY" opacity="1" fill="#000000" fill-opacity="0"></use><g><use xlink:href="#j6zLKn79fY" opacity="1" fill-opacity="0" stroke="#000000" stroke-width="1" stroke-opacity="0"></use></g></g><g><use xlink:href="#dbATHxHVHW" opacity="1" fill="#00293c" fill-opacity="1"></use><g><use xlink:href="#dbATHxHVHW" opacity="1" fill-opacity="0" stroke="#000000" stroke-width="1" stroke-opacity="0"></use></g></g><g><use xlink:href="#e4yp7GSxWJ" opacity="1" fill="#000000" fill-opacity="0"></use><g><use xlink:href="#e4yp7GSxWJ" opacity="1" fill-opacity="0" stroke="#000000" stroke-width="1" stroke-opacity="0"></use></g></g><g><use xlink:href="#b3EVtB22Vf" opacity="1" fill="#00293c" fill-opacity="1"></use><g><use xlink:href="#b3EVtB22Vf" opacity="1" fill-opacity="0" stroke="#000000" stroke-width="1" stroke-opacity="0"></use></g></g><g><use xlink:href="#a1NhRF6mfe" opacity="1" fill="#000000" fill-opacity="0"></use><g><use xlink:href="#a1NhRF6mfe" opacity="1" fill-opacity="0" stroke="#000000" stroke-width="1" stroke-opacity="0"></use></g></g><g><use xlink:href="#bG1pDSGL5" opacity="1" fill="#1e656d" fill-opacity="1"></use><g><use xlink:href="#bG1pDSGL5" opacity="1" fill-opacity="0" stroke="#000000" stroke-width="1" stroke-opacity="0"></use></g></g><g><use xlink:href="#b41b3xlbE" opacity="1" fill="#000000" fill-opacity="0"></use><g><use xlink:href="#b41b3xlbE" opacity="1" fill-opacity="0" stroke="#000000" stroke-width="1" stroke-opacity="0"></use></g></g><g><use xlink:href="#b40UJgHrBi" opacity="1" fill="#f1f3ce" fill-opacity="1"></use><g><use xlink:href="#b40UJgHrBi" opacity="1" fill-opacity="0" stroke="#000000" stroke-width="1" stroke-opacity="0"></use></g></g><g><use xlink:href="#a4tT4ilhy" opacity="1" fill="#000000" fill-opacity="0"></use><g><use xlink:href="#a4tT4ilhy" opacity="1" fill-opacity="0" stroke="#000000" stroke-width="1" stroke-opacity="0"></use></g></g><g><use xlink:href="#h26EY57C25" opacity="1" fill="#f1f3ce" fill-opacity="1"></use><g><use xlink:href="#h26EY57C25" opacity="1" fill-opacity="0" stroke="#000000" stroke-width="1" stroke-opacity="0"></use></g></g><g><use xlink:href="#b119DpG6YG" opacity="1" fill="#000000" fill-opacity="0"></use><g><use xlink:href="#b119DpG6YG" opacity="1" fill-opacity="0" stroke="#000000" stroke-width="1" stroke-opacity="0"></use></g></g><g><use xlink:href="#a2aN1ZaSpR" opacity="1" fill="#f1f3ce" fill-opacity="1"></use><g><use xlink:href="#a2aN1ZaSpR" opacity="1" fill-opacity="0" stroke="#000000" stroke-width="1" stroke-opacity="0"></use></g></g><g><use xlink:href="#b1pz3kHzW8" opacity="1" fill="#000000" fill-opacity="0"></use><g><use xlink:href="#b1pz3kHzW8" opacity="1" fill-opacity="0" stroke="#000000" stroke-width="1" stroke-opacity="0"></use></g></g><g><use xlink:href="#g7XC85vjA" opacity="1" fill="#1e656d" fill-opacity="1"></use><g><use xlink:href="#g7XC85vjA" opacity="1" fill-opacity="0" stroke="#000000" stroke-width="1" stroke-opacity="0"></use></g></g><g><use xlink:href="#a1Jd045ArY" opacity="1" fill="#000000" fill-opacity="0"></use><g><use xlink:href="#a1Jd045ArY" opacity="1" fill-opacity="0" stroke="#000000" stroke-width="1" stroke-opacity="0"></use></g></g><g><use xlink:href="#afHDPUNZb" opacity="1" fill="#00293c" fill-opacity="1"></use><g><use xlink:href="#afHDPUNZb" opacity="1" fill-opacity="0" stroke="#000000" stroke-width="1" stroke-opacity="0"></use></g></g><g><use xlink:href="#d2T6ElE3uM" opacity="1" fill="#000000" fill-opacity="0"></use><g><use xlink:href="#d2T6ElE3uM" opacity="1" fill-opacity="0" stroke="#000000" stroke-width="1" stroke-opacity="0"></use></g></g><g><use xlink:href="#b4CCl45wv" opacity="1" fill="#00293c" fill-opacity="1"></use><g><use xlink:href="#b4CCl45wv" opacity="1" fill-opacity="0" stroke="#000000" stroke-width="1" stroke-opacity="0"></use></g></g><g><use xlink:href="#f5EtUHoqU5" opacity="1" fill="#000000" fill-opacity="0"></use><g><use xlink:href="#f5EtUHoqU5" opacity="1" fill-opacity="0" stroke="#000000" stroke-width="1" stroke-opacity="0"></use></g></g><g><use xlink:href="#afL4EVH6Q" opacity="1" fill="#00293c" fill-opacity="1"></use><g><use xlink:href="#afL4EVH6Q" opacity="1" fill-opacity="0" stroke="#000000" stroke-width="1" stroke-opacity="0"></use></g></g><g><use xlink:href="#e4cCyuJeBX" opacity="1" fill="#000000" fill-opacity="0"></use><g><use xlink:href="#e4cCyuJeBX" opacity="1" fill-opacity="0" stroke="#000000" stroke-width="1" stroke-opacity="0"></use></g></g><g><use xlink:href="#b4GejCzM7" opacity="1" fill="#00293c" fill-opacity="1"></use><g><use xlink:href="#b4GejCzM7" opacity="1" fill-opacity="0" stroke="#000000" stroke-width="1" stroke-opacity="0"></use></g></g><g><use xlink:href="#f1GESD9pkX" opacity="1" fill="#000000" fill-opacity="0"></use><g><use xlink:href="#f1GESD9pkX" opacity="1" fill-opacity="0" stroke="#000000" stroke-width="1" stroke-opacity="0"></use></g></g><g><use xlink:href="#k6s7OnCgm" opacity="1" fill="#00293c" fill-opacity="1"></use><g><use xlink:href="#k6s7OnCgm" opacity="1" fill-opacity="0" stroke="#000000" stroke-width="1" stroke-opacity="0"></use></g></g><g><use xlink:href="#a26D4H94cq" opacity="1" fill="#000000" fill-opacity="0"></use><g><use xlink:href="#a26D4H94cq" opacity="1" fill-opacity="0" stroke="#000000" stroke-width="1" stroke-opacity="0"></use></g></g><g><use xlink:href="#aWeS0xVr4" opacity="1" fill="#00293c" fill-opacity="1"></use><g><use xlink:href="#aWeS0xVr4" opacity="1" fill-opacity="0" stroke="#000000" stroke-width="1" stroke-opacity="0"></use></g></g><g><use xlink:href="#ax0ogaC2V" opacity="1" fill="#000000" fill-opacity="0"></use><g><use xlink:href="#ax0ogaC2V" opacity="1" fill-opacity="0" stroke="#000000" stroke-width="1" stroke-opacity="0"></use></g></g><g><use xlink:href="#a61TVtFyn" opacity="1" fill="#00293c" fill-opacity="1"></use><g><use xlink:href="#a61TVtFyn" opacity="1" fill-opacity="0" stroke="#000000" stroke-width="1" stroke-opacity="0"></use></g></g><g><use xlink:href="#acRKQN9Wy" opacity="1" fill="#000000" fill-opacity="0"></use><g><use xlink:href="#acRKQN9Wy" opacity="1" fill-opacity="0" stroke="#000000" stroke-width="1" stroke-opacity="0"></use></g></g><g><use xlink:href="#brS3UMAyR" opacity="1" fill="#00293c" fill-opacity="1"></use><g><use xlink:href="#brS3UMAyR" opacity="1" fill-opacity="0" stroke="#000000" stroke-width="1" stroke-opacity="0"></use></g></g><g><use xlink:href="#d1LevDcjp7" opacity="1" fill="#000000" fill-opacity="0"></use><g><use xlink:href="#d1LevDcjp7" opacity="1" fill-opacity="0" stroke="#000000" stroke-width="1" stroke-opacity="0"></use></g></g><g><use xlink:href="#a1Av0BwnvB" opacity="1" fill="#00293c" fill-opacity="1"></use><g><use xlink:href="#a1Av0BwnvB" opacity="1" fill-opacity="0" stroke="#000000" stroke-width="1" stroke-opacity="0"></use></g></g><g><use xlink:href="#bPPMyYt03" opacity="1" fill="#000000" fill-opacity="0"></use><g><use xlink:href="#bPPMyYt03" opacity="1" fill-opacity="0" stroke="#000000" stroke-width="1" stroke-opacity="0"></use></g></g><g><use xlink:href="#a2Yg9XIlDe" opacity="1" fill="#00293c" fill-opacity="1"></use><g><use xlink:href="#a2Yg9XIlDe" opacity="1" fill-opacity="0" stroke="#000000" stroke-width="1" stroke-opacity="0"></use></g></g><g><use xlink:href="#d28aaVRKVx" opacity="1" fill="#000000" fill-opacity="0"></use><g><use xlink:href="#d28aaVRKVx" opacity="1" fill-opacity="0" stroke="#000000" stroke-width="1" stroke-opacity="0"></use></g></g><g><use xlink:href="#dFyBGP55N" opacity="1" fill="#00293c" fill-opacity="1"></use><g><use xlink:href="#dFyBGP55N" opacity="1" fill-opacity="0" stroke="#000000" stroke-width="1" stroke-opacity="0"></use></g></g><g><use xlink:href="#a1zcrLCB2e" opacity="1" fill="#000000" fill-opacity="0"></use><g><use xlink:href="#a1zcrLCB2e" opacity="1" fill-opacity="0" stroke="#000000" stroke-width="1" stroke-opacity="0"></use></g></g><g><use xlink:href="#g1uVcWkkDi" opacity="1" fill="#1e656d" fill-opacity="1"></use><g><use xlink:href="#g1uVcWkkDi" opacity="1" fill-opacity="0" stroke="#000000" stroke-width="1" stroke-opacity="0"></use></g></g><g><use xlink:href="#b5hsTQb5a8" opacity="1" fill="#000000" fill-opacity="0"></use><g><use xlink:href="#b5hsTQb5a8" opacity="1" fill-opacity="0" stroke="#000000" stroke-width="1" stroke-opacity="0"></use></g></g><g><use xlink:href="#a2by2z8PUd" opacity="1" fill="#f1f3ce" fill-opacity="1"></use><g><use xlink:href="#a2by2z8PUd" opacity="1" fill-opacity="0" stroke="#000000" stroke-width="1" stroke-opacity="0"></use></g></g><g><use xlink:href="#f18GYJOpL" opacity="1" fill="#000000" fill-opacity="0"></use><g><use xlink:href="#f18GYJOpL" opacity="1" fill-opacity="0" stroke="#000000" stroke-width="1" stroke-opacity="0"></use></g></g><g><use xlink:href="#h2eHevyyu" opacity="1" fill="#1e656d" fill-opacity="1"></use><g><use xlink:href="#h2eHevyyu" opacity="1" fill-opacity="0" stroke="#000000" stroke-width="1" stroke-opacity="0"></use></g></g><g><use xlink:href="#cWYfDP2B8" opacity="1" fill="#000000" fill-opacity="0"></use><g><use xlink:href="#cWYfDP2B8" opacity="1" fill-opacity="0" stroke="#000000" stroke-width="1" stroke-opacity="0"></use></g></g><g><use xlink:href="#a2Elj66q4s" opacity="1" fill="#12938a" fill-opacity="1"></use><g><use xlink:href="#a2Elj66q4s" opacity="1" fill-opacity="0" stroke="#000000" stroke-width="1" stroke-opacity="0"></use></g></g><g><use xlink:href="#c1hoUDievZ" opacity="1" fill="#000000" fill-opacity="0"></use><g><use xlink:href="#c1hoUDievZ" opacity="1" fill-opacity="0" stroke="#000000" stroke-width="1" stroke-opacity="0"></use></g></g><g><use xlink:href="#b33zTHH46C" opacity="1" fill="#1e656d" fill-opacity="1"></use><g><use xlink:href="#b33zTHH46C" opacity="1" fill-opacity="0" stroke="#000000" stroke-width="1" stroke-opacity="0"></use></g></g><g><use xlink:href="#b1e4V5lDZf" opacity="1" fill="#000000" fill-opacity="0"></use><g><use xlink:href="#b1e4V5lDZf" opacity="1" fill-opacity="0" stroke="#000000" stroke-width="1" stroke-opacity="0"></use></g></g><g><use xlink:href="#gvD6U8V7n" opacity="1" fill="#f1f3ce" fill-opacity="1"></use><g><use xlink:href="#gvD6U8V7n" opacity="1" fill-opacity="0" stroke="#000000" stroke-width="1" stroke-opacity="0"></use></g></g><g><use xlink:href="#k4jyXDwiBr" opacity="1" fill="#000000" fill-opacity="0"></use><g><use xlink:href="#k4jyXDwiBr" opacity="1" fill-opacity="0" stroke="#000000" stroke-width="1" stroke-opacity="0"></use></g></g><g><use xlink:href="#e3xAkQadqW" opacity="1" fill="#1e656d" fill-opacity="1"></use><g><use xlink:href="#e3xAkQadqW" opacity="1" fill-opacity="0" stroke="#000000" stroke-width="1" stroke-opacity="0"></use></g></g><g><use xlink:href="#d1MFJIDeWG" opacity="1" fill="#000000" fill-opacity="0"></use><g><use xlink:href="#d1MFJIDeWG" opacity="1" fill-opacity="0" stroke="#000000" stroke-width="1" stroke-opacity="0"></use></g></g><g><use xlink:href="#dttCp778a" opacity="1" fill="#f62a00" fill-opacity="1"></use><g><use xlink:href="#dttCp778a" opacity="1" fill-opacity="0" stroke="#000000" stroke-width="1" stroke-opacity="0"></use></g></g><g><use xlink:href="#bcAqDZqhs" opacity="1" fill="#000000" fill-opacity="0"></use><g><use xlink:href="#bcAqDZqhs" opacity="1" fill-opacity="0" stroke="#000000" stroke-width="1" stroke-opacity="0"></use></g></g><g><use xlink:href="#a6b7JgCZpZ" opacity="1" fill="#12938a" fill-opacity="1"></use><g><use xlink:href="#a6b7JgCZpZ" opacity="1" fill-opacity="0" stroke="#000000" stroke-width="1" stroke-opacity="0"></use></g></g><g><use xlink:href="#amedfDGU" opacity="1" fill="#000000" fill-opacity="0"></use><g><use xlink:href="#amedfDGU" opacity="1" fill-opacity="0" stroke="#000000" stroke-width="1" stroke-opacity="0"></use></g></g><g><use xlink:href="#cYZ5V7W4m" opacity="1" fill="#f62a00" fill-opacity="1"></use><g><use xlink:href="#cYZ5V7W4m" opacity="1" fill-opacity="0" stroke="#000000" stroke-width="1" stroke-opacity="0"></use></g></g><g><use xlink:href="#bmn7PdrsC" opacity="1" fill="#000000" fill-opacity="0"></use><g><use xlink:href="#bmn7PdrsC" opacity="1" fill-opacity="0" stroke="#000000" stroke-width="1" stroke-opacity="0"></use></g></g><g><use xlink:href="#kE7sBsj2y" opacity="1" fill="#f1f3ce" fill-opacity="1"></use><g><use xlink:href="#kE7sBsj2y" opacity="1" fill-opacity="0" stroke="#000000" stroke-width="1" stroke-opacity="0"></use></g></g><g><use xlink:href="#h27NoIYqk7" opacity="1" fill="#000000" fill-opacity="0"></use><g><use xlink:href="#h27NoIYqk7" opacity="1" fill-opacity="0" stroke="#000000" stroke-width="1" stroke-opacity="0"></use></g></g><g><use xlink:href="#a1Jc6px8wi" opacity="1" fill="#f1f3ce" fill-opacity="1"></use><g><use xlink:href="#a1Jc6px8wi" opacity="1" fill-opacity="0" stroke="#000000" stroke-width="1" stroke-opacity="0"></use></g></g><g><use xlink:href="#c3QbnDqoZf" opacity="1" fill="#000000" fill-opacity="0"></use><g><use xlink:href="#c3QbnDqoZf" opacity="1" fill-opacity="0" stroke="#000000" stroke-width="1" stroke-opacity="0"></use></g></g><g><use xlink:href="#a1kTD7gzQc" opacity="1" fill="#00293c" fill-opacity="1"></use><g><use xlink:href="#a1kTD7gzQc" opacity="1" fill-opacity="0" stroke="#000000" stroke-width="1" stroke-opacity="0"></use></g></g><g><use xlink:href="#b3VZPfrqHY" opacity="1" fill="#000000" fill-opacity="0"></use><g><use xlink:href="#b3VZPfrqHY" opacity="1" fill-opacity="0" stroke="#000000" stroke-width="1" stroke-opacity="0"></use></g></g><g><use xlink:href="#e6BL4858Ts" opacity="1" fill="#f62a00" fill-opacity="1"></use><g><use xlink:href="#e6BL4858Ts" opacity="1" fill-opacity="0" stroke="#000000" stroke-width="1" stroke-opacity="0"></use></g></g><g><use xlink:href="#byhPINCHH" opacity="1" fill="#000000" fill-opacity="0"></use><g><use xlink:href="#byhPINCHH" opacity="1" fill-opacity="0" stroke="#000000" stroke-width="1" stroke-opacity="0"></use></g></g><g><use xlink:href="#bf3oLVFAq" opacity="1" fill="#1e656d" fill-opacity="1"></use><g><use xlink:href="#bf3oLVFAq" opacity="1" fill-opacity="0" stroke="#000000" stroke-width="1" stroke-opacity="0"></use></g></g><g><use xlink:href="#aahM5GmWlW" opacity="1" fill="#000000" fill-opacity="0"></use><g><use xlink:href="#aahM5GmWlW" opacity="1" fill-opacity="0" stroke="#000000" stroke-width="1" stroke-opacity="0"></use></g></g><g><use xlink:href="#hOnH8mZHv" opacity="1" fill="#f1f3ce" fill-opacity="1"></use><g><use xlink:href="#hOnH8mZHv" opacity="1" fill-opacity="0" stroke="#000000" stroke-width="1" stroke-opacity="0"></use></g></g><g><use xlink:href="#a1jYYSRwsE" opacity="1" fill="#000000" fill-opacity="0"></use><g><use xlink:href="#a1jYYSRwsE" opacity="1" fill-opacity="0" stroke="#000000" stroke-width="1" stroke-opacity="0"></use></g></g><g><use xlink:href="#aj48VTsH0" opacity="1" fill="#1e656d" fill-opacity="1"></use><g><use xlink:href="#aj48VTsH0" opacity="1" fill-opacity="0" stroke="#000000" stroke-width="1" stroke-opacity="0"></use></g></g><g><use xlink:href="#b5yRgQhxje" opacity="1" fill="#000000" fill-opacity="0"></use><g><use xlink:href="#b5yRgQhxje" opacity="1" fill-opacity="0" stroke="#000000" stroke-width="1" stroke-opacity="0"></use></g></g><g><use xlink:href="#b66SXSuqQ" opacity="1" fill="#f62a00" fill-opacity="1"></use><g><use xlink:href="#b66SXSuqQ" opacity="1" fill-opacity="0" stroke="#000000" stroke-width="1" stroke-opacity="0"></use></g></g><g><use xlink:href="#dd3vNoBn2" opacity="1" fill="#000000" fill-opacity="0"></use><g><use xlink:href="#dd3vNoBn2" opacity="1" fill-opacity="0" stroke="#000000" stroke-width="1" stroke-opacity="0"></use></g></g><g><use xlink:href="#gS3qujGfG" opacity="1" fill="#1e656d" fill-opacity="1"></use><g><use xlink:href="#gS3qujGfG" opacity="1" fill-opacity="0" stroke="#000000" stroke-width="1" stroke-opacity="0"></use></g></g><g><use xlink:href="#b1g9h7m2a" opacity="1" fill="#000000" fill-opacity="0"></use><g><use xlink:href="#b1g9h7m2a" opacity="1" fill-opacity="0" stroke="#000000" stroke-width="1" stroke-opacity="0"></use></g></g><g><use xlink:href="#bf2630Lg6" opacity="1" fill="#1e656d" fill-opacity="1"></use><g><use xlink:href="#bf2630Lg6" opacity="1" fill-opacity="0" stroke="#000000" stroke-width="1" stroke-opacity="0"></use></g></g><g><use xlink:href="#a5vmwM9iJ" opacity="1" fill="#000000" fill-opacity="0"></use><g><use xlink:href="#a5vmwM9iJ" opacity="1" fill-opacity="0" stroke="#000000" stroke-width="1" stroke-opacity="0"></use></g></g><g><use xlink:href="#e3BghCx5ae" opacity="1" fill="#00293c" fill-opacity="1"></use><g><use xlink:href="#e3BghCx5ae" opacity="1" fill-opacity="0" stroke="#000000" stroke-width="1" stroke-opacity="0"></use></g></g><g><use xlink:href="#a1i3uvc4XW" opacity="1" fill="#000000" fill-opacity="0"></use><g><use xlink:href="#a1i3uvc4XW" opacity="1" fill-opacity="0" stroke="#000000" stroke-width="1" stroke-opacity="0"></use></g></g><g><use xlink:href="#ciLsL4DMT" opacity="1" fill="#00293c" fill-opacity="1"></use><g><use xlink:href="#ciLsL4DMT" opacity="1" fill-opacity="0" stroke="#000000" stroke-width="1" stroke-opacity="0"></use></g></g><g><use xlink:href="#e2J3oaLCUz" opacity="1" fill="#000000" fill-opacity="0"></use><g><use xlink:href="#e2J3oaLCUz" opacity="1" fill-opacity="0" stroke="#000000" stroke-width="1" stroke-opacity="0"></use></g></g><g><use xlink:href="#b1vsmQvqKB" opacity="1" fill="#f1f3ce" fill-opacity="1"></use><g><use xlink:href="#b1vsmQvqKB" opacity="1" fill-opacity="0" stroke="#000000" stroke-width="1" stroke-opacity="0"></use></g></g><g><use xlink:href="#a2mGUp8uw3" opacity="1" fill="#000000" fill-opacity="0"></use><g><use xlink:href="#a2mGUp8uw3" opacity="1" fill-opacity="0" stroke="#000000" stroke-width="1" stroke-opacity="0"></use></g></g><g><use xlink:href="#a15J8ytVMy" opacity="1" fill="#f1f3ce" fill-opacity="1"></use><g><use xlink:href="#a15J8ytVMy" opacity="1" fill-opacity="0" stroke="#000000" stroke-width="1" stroke-opacity="0"></use></g></g><g><use xlink:href="#b1ci0ppXJ" opacity="1" fill="#000000" fill-opacity="0"></use><g><use xlink:href="#b1ci0ppXJ" opacity="1" fill-opacity="0" stroke="#000000" stroke-width="1" stroke-opacity="0"></use></g></g><g><use xlink:href="#a2FWkGeX9" opacity="1" fill="#00293c" fill-opacity="1"></use><g><use xlink:href="#a2FWkGeX9" opacity="1" fill-opacity="0" stroke="#000000" stroke-width="1" stroke-opacity="0"></use></g></g><g><use xlink:href="#g5w68Sqcr4" opacity="1" fill="#000000" fill-opacity="0"></use><g><use xlink:href="#g5w68Sqcr4" opacity="1" fill-opacity="0" stroke="#000000" stroke-width="1" stroke-opacity="0"></use></g></g><g><use xlink:href="#b3DEp8N6dP" opacity="1" fill="#00293c" fill-opacity="1"></use><g><use xlink:href="#b3DEp8N6dP" opacity="1" fill-opacity="0" stroke="#000000" stroke-width="1" stroke-opacity="0"></use></g></g><g><use xlink:href="#c2NZLO44Wt" opacity="1" fill="#000000" fill-opacity="0"></use><g><use xlink:href="#c2NZLO44Wt" opacity="1" fill-opacity="0" stroke="#000000" stroke-width="1" stroke-opacity="0"></use></g></g></g></g></svg>