<?xml version="1.0" encoding="UTF-8" standalone="no"?>
<!DOCTYPE svg PUBLIC "-//W3C//DTD SVG 1.1//EN" "http://www.w3.org/Graphics/SVG/1.1/DTD/svg11.dtd">
<svg version="1.1" xmlns="http://www.w3.org/2000/svg" xmlns:xlink="http://www.w3.org/1999/xlink" preserveAspectRatio="xMidYMid meet" viewBox="0 0 32 24" width="32" height="24"><defs><path d="M11.73 3.99L11.73 23.28L8.9 23.28L8.9 3.99L11.73 3.99Z" id="aKCHeTa3o"></path><path d="M14.57 19.69L14.57 23.28L11.73 23.28L11.73 19.69L14.57 19.69Z" id="a7Xb32ikGH"></path><path d="M14.57 3.99L14.57 5.66L11.73 5.66L11.73 3.99L14.57 3.99Z" id="c12l4AA56"></path><path d="M17.42 3.99L17.42 23.28L14.58 23.28L14.58 3.99L17.42 3.99Z" id="c2BCa48ngH"></path><path d="M20.23 3.99L20.23 5.66L17.4 5.66L17.4 3.99L20.23 3.99Z" id="a2TLV4FTTm"></path><path d="M20.23 19.69L20.23 23.28L17.4 23.28L17.4 19.69L20.23 19.69Z" id="cZRkiJ8vu"></path><path d="M23.07 3.99L23.07 23.28L20.23 23.28L20.23 3.99L23.07 3.99Z" id="a15As4k2uQ"></path><path d="M24.61 2.32L24.61 3.99L7.1 3.99L7.1 2.32L24.61 2.32Z" id="a2rPKVlugv"></path><path d="M19.29 0.65L19.29 2.32L12.42 2.32L12.42 0.65L19.29 0.65Z" id="a1IHWMfPiK"></path></defs><g><g><g><use xlink:href="#aKCHeTa3o" opacity="1" fill="#f1f3ce" fill-opacity="1"></use><g><use xlink:href="#aKCHeTa3o" opacity="1" fill-opacity="0" stroke="#000000" stroke-width="1" stroke-opacity="0"></use></g></g><g><use xlink:href="#a7Xb32ikGH" opacity="1" fill="#f1f3ce" fill-opacity="1"></use><g><use xlink:href="#a7Xb32ikGH" opacity="1" fill-opacity="0" stroke="#000000" stroke-width="1" stroke-opacity="0"></use></g></g><g><use xlink:href="#c12l4AA56" opacity="1" fill="#f1f3ce" fill-opacity="1"></use><g><use xlink:href="#c12l4AA56" opacity="1" fill-opacity="0" stroke="#000000" stroke-width="1" stroke-opacity="0"></use></g></g><g><use xlink:href="#c2BCa48ngH" opacity="1" fill="#f1f3ce" fill-opacity="1"></use><g><use xlink:href="#c2BCa48ngH" opacity="1" fill-opacity="0" stroke="#000000" stroke-width="1" stroke-opacity="0"></use></g></g><g><use xlink:href="#a2TLV4FTTm" opacity="1" fill="#f1f3ce" fill-opacity="1"></use><g><use xlink:href="#a2TLV4FTTm" opacity="1" fill-opacity="0" stroke="#000000" stroke-width="1" stroke-opacity="0"></use></g></g><g><use xlink:href="#cZRkiJ8vu" opacity="1" fill="#f1f3ce" fill-opacity="1"></use><g><use xlink:href="#cZRkiJ8vu" opacity="1" fill-opacity="0" stroke="#000000" stroke-width="1" stroke-opacity="0"></use></g></g><g><use xlink:href="#a15As4k2uQ" opacity="1" fill="#f1f3ce" fill-opacity="1"></use><g><use xlink:href="#a15As4k2uQ" opacity="1" fill-opacity="0" stroke="#000000" stroke-width="1" stroke-opacity="0"></use></g></g><g><use xlink:href="#a2rPKVlugv" opacity="1" fill="#f1f3ce" fill-opacity="1"></use><g><use xlink:href="#a2rPKVlugv" opacity="1" fill-opacity="0" stroke="#000000" stroke-width="1" stroke-opacity="0"></use></g></g><g><use xlink:href="#a1IHWMfPiK" opacity="1" fill="#f1f3ce" fill-opacity="0.99"></use><g><use xlink:href="#a1IHWMfPiK" opacity="1" fill-opacity="0" stroke="#000000" stroke-width="1" stroke-opacity="0"></use></g></g></g></g></svg>