<?xml version="1.0" encoding="UTF-8" standalone="no"?>
<!DOCTYPE svg PUBLIC "-//W3C//DTD SVG 1.1//EN" "http://www.w3.org/Graphics/SVG/1.1/DTD/svg11.dtd">
<svg version="1.1" xmlns="http://www.w3.org/2000/svg" xmlns:xlink="http://www.w3.org/1999/xlink" preserveAspectRatio="xMidYMid meet" viewBox="0 0 32 24" width="32" height="24"><defs><path d="M31.77 108.57C31.77 106.3 33.66 104.45 35.98 104.45C38.3 104.45 40.19 106.3 40.19 108.57C40.19 110.85 38.3 112.69 35.98 112.69C33.66 112.69 31.77 110.85 31.77 108.57Z" id="c8tKtgZbyb"></path><path d="M31.77 108.57C31.77 106.3 33.66 104.45 35.98 104.45C38.3 104.45 40.19 106.3 40.19 108.57C40.19 110.85 38.3 112.69 35.98 112.69C33.66 112.69 31.77 110.85 31.77 108.57Z" id="c9eVG2NT5"></path><path d="M40.19 108.92L31.77 108.92L31.77 89.44L40.19 89.44L40.19 108.92Z" id="e3wgbqMag4"></path><path d="M40.19 108.92L31.77 108.92L31.77 89.44L40.19 89.44L40.19 108.92Z" id="ciZVBUxIz"></path><path d="M41.34 88.95L30.66 88.95L30.66 87.49L41.34 87.49L41.34 88.95Z" id="a7fMnV7YPr"></path><path d="M41.34 88.95L30.66 88.95L30.66 87.49L41.34 87.49L41.34 88.95Z" id="aOUvVsig1"></path><path d="M36.4 95.34C36.4 94.63 36.96 94.06 37.64 94.06C38.32 94.06 38.88 94.63 38.88 95.34C38.88 96.04 38.32 96.62 37.64 96.62C36.96 96.62 36.4 96.04 36.4 95.34Z" id="agiKnMRgx"></path><path d="M36.4 95.34C36.4 94.63 36.96 94.06 37.64 94.06C38.32 94.06 38.88 94.63 38.88 95.34C38.88 96.04 38.32 96.62 37.64 96.62C36.96 96.62 36.4 96.04 36.4 95.34Z" id="e1gbmZP7D3"></path><path d="M33.11 100.91C33.11 99.96 33.85 99.18 34.75 99.18C35.66 99.18 36.4 99.96 36.4 100.91C36.4 101.87 35.66 102.65 34.75 102.65C33.85 102.65 33.11 101.87 33.11 100.91Z" id="d1QsCDpvXx"></path><path d="M33.11 100.91C33.11 99.96 33.85 99.18 34.75 99.18C35.66 99.18 36.4 99.96 36.4 100.91C36.4 101.87 35.66 102.65 34.75 102.65C33.85 102.65 33.11 101.87 33.11 100.91Z" id="liqr2HoMH"></path><path d="M11.73 23.28L8.9 23.28L8.9 3.99L11.73 3.99L11.73 23.28Z" id="a533XksLw"></path><path d="M11.73 23.28L8.9 23.28L8.9 3.99L11.73 3.99L11.73 23.28Z" id="dcbeIIguJ"></path><path d="M14.57 23.28L11.73 23.28L11.73 19.69L14.57 19.69L14.57 23.28Z" id="b3N6uj0Zgp"></path><path d="M14.57 23.28L11.73 23.28L11.73 19.69L14.57 19.69L14.57 23.28Z" id="b1P84zcypx"></path><path d="M14.57 5.66L11.73 5.66L11.73 3.99L14.57 3.99L14.57 5.66Z" id="gkPJ53Qjp"></path><path d="M14.57 5.66L11.73 5.66L11.73 3.99L14.57 3.99L14.57 5.66Z" id="a11WP8bXRZ"></path><path d="M17.42 23.28L14.58 23.28L14.58 3.99L17.42 3.99L17.42 23.28Z" id="e1J1zqMWvS"></path><path d="M17.42 23.28L14.58 23.28L14.58 3.99L17.42 3.99L17.42 23.28Z" id="byBC5ZRn"></path><path d="M20.23 5.66L17.4 5.66L17.4 3.99L20.23 3.99L20.23 5.66Z" id="a9zlgUH2ug"></path><path d="M20.23 5.66L17.4 5.66L17.4 3.99L20.23 3.99L20.23 5.66Z" id="ajU4R5wER"></path><path d="M20.23 23.28L17.4 23.28L17.4 19.69L20.23 19.69L20.23 23.28Z" id="c6mCU5cHfL"></path><path d="M20.23 23.28L17.4 23.28L17.4 19.69L20.23 19.69L20.23 23.28Z" id="e1rlNBL5Ec"></path><path d="M23.07 23.28L20.23 23.28L20.23 3.99L23.07 3.99L23.07 23.28Z" id="aLTNAtgSG"></path><path d="M23.07 23.28L20.23 23.28L20.23 3.99L23.07 3.99L23.07 23.28Z" id="a2BBIi1ePR"></path><path d="M24.61 3.99L7.1 3.99L7.1 2.32L24.61 2.32L24.61 3.99Z" id="d1NYkWUyOE"></path><path d="M24.61 3.99L7.1 3.99L7.1 2.32L24.61 2.32L24.61 3.99Z" id="c1aIuODJiX"></path><path d="M19.29 2.32L12.42 2.32L12.42 0.65L19.29 0.65L19.29 2.32Z" id="adH5WMR2y"></path><path d="M19.29 2.32L12.42 2.32L12.42 0.65L19.29 0.65L19.29 2.32Z" id="c3aWSEREph"></path></defs><g><g><g><use xlink:href="#c8tKtgZbyb" opacity="1" fill="#ffffff" fill-opacity="1"></use><g><use xlink:href="#c8tKtgZbyb" opacity="1" fill-opacity="0" stroke="#000000" stroke-width="1" stroke-opacity="0"></use></g></g><g><use xlink:href="#c9eVG2NT5" opacity="1" fill="#000000" fill-opacity="0"></use><g><use xlink:href="#c9eVG2NT5" opacity="1" fill-opacity="0" stroke="#000000" stroke-width="1" stroke-opacity="0"></use></g></g><g><use xlink:href="#e3wgbqMag4" opacity="1" fill="#ffffff" fill-opacity="1"></use><g><use xlink:href="#e3wgbqMag4" opacity="1" fill-opacity="0" stroke="#000000" stroke-width="1" stroke-opacity="0"></use></g></g><g><use xlink:href="#ciZVBUxIz" opacity="1" fill="#000000" fill-opacity="0"></use><g><use xlink:href="#ciZVBUxIz" opacity="1" fill-opacity="0" stroke="#000000" stroke-width="1" stroke-opacity="0"></use></g></g><g><use xlink:href="#a7fMnV7YPr" opacity="1" fill="#ffffff" fill-opacity="1"></use><g><use xlink:href="#a7fMnV7YPr" opacity="1" fill-opacity="0" stroke="#000000" stroke-width="1" stroke-opacity="0"></use></g></g><g><use xlink:href="#aOUvVsig1" opacity="1" fill="#000000" fill-opacity="0"></use><g><use xlink:href="#aOUvVsig1" opacity="1" fill-opacity="0" stroke="#000000" stroke-width="1" stroke-opacity="0"></use></g></g><g><use xlink:href="#agiKnMRgx" opacity="1" fill="#3391b2" fill-opacity="0"></use><g><use xlink:href="#agiKnMRgx" opacity="1" fill-opacity="0" stroke="#000000" stroke-width="1" stroke-opacity="0"></use></g></g><g><use xlink:href="#e1gbmZP7D3" opacity="1" fill="#000000" fill-opacity="0"></use><g><use xlink:href="#e1gbmZP7D3" opacity="1" fill-opacity="0" stroke="#000000" stroke-width="1" stroke-opacity="0"></use></g></g><g><use xlink:href="#d1QsCDpvXx" opacity="1" fill="#58a7f6" fill-opacity="0"></use><g><use xlink:href="#d1QsCDpvXx" opacity="1" fill-opacity="0" stroke="#000000" stroke-width="1" stroke-opacity="0"></use></g></g><g><use xlink:href="#liqr2HoMH" opacity="1" fill="#000000" fill-opacity="0"></use><g><use xlink:href="#liqr2HoMH" opacity="1" fill-opacity="0" stroke="#000000" stroke-width="1" stroke-opacity="0"></use></g></g><g><use xlink:href="#a533XksLw" opacity="1" fill="#00293c" fill-opacity="1"></use><g><use xlink:href="#a533XksLw" opacity="1" fill-opacity="0" stroke="#000000" stroke-width="1" stroke-opacity="0"></use></g></g><g><use xlink:href="#dcbeIIguJ" opacity="1" fill="#00293c" fill-opacity="1"></use><g><use xlink:href="#dcbeIIguJ" opacity="1" fill-opacity="0" stroke="#000000" stroke-width="1" stroke-opacity="0"></use></g></g><g><use xlink:href="#b3N6uj0Zgp" opacity="1" fill="#00293c" fill-opacity="1"></use><g><use xlink:href="#b3N6uj0Zgp" opacity="1" fill-opacity="0" stroke="#000000" stroke-width="1" stroke-opacity="0"></use></g></g><g><use xlink:href="#b1P84zcypx" opacity="1" fill="#00293c" fill-opacity="1"></use><g><use xlink:href="#b1P84zcypx" opacity="1" fill-opacity="0" stroke="#000000" stroke-width="1" stroke-opacity="0"></use></g></g><g><use xlink:href="#gkPJ53Qjp" opacity="1" fill="#00293c" fill-opacity="1"></use><g><use xlink:href="#gkPJ53Qjp" opacity="1" fill-opacity="0" stroke="#000000" stroke-width="1" stroke-opacity="0"></use></g></g><g><use xlink:href="#a11WP8bXRZ" opacity="1" fill="#00293c" fill-opacity="1"></use><g><use xlink:href="#a11WP8bXRZ" opacity="1" fill-opacity="0" stroke="#000000" stroke-width="1" stroke-opacity="0"></use></g></g><g><use xlink:href="#e1J1zqMWvS" opacity="1" fill="#00293c" fill-opacity="1"></use><g><use xlink:href="#e1J1zqMWvS" opacity="1" fill-opacity="0" stroke="#000000" stroke-width="1" stroke-opacity="0"></use></g></g><g><use xlink:href="#byBC5ZRn" opacity="1" fill="#00293c" fill-opacity="1"></use><g><use xlink:href="#byBC5ZRn" opacity="1" fill-opacity="0" stroke="#000000" stroke-width="1" stroke-opacity="0"></use></g></g><g><use xlink:href="#a9zlgUH2ug" opacity="1" fill="#00293c" fill-opacity="1"></use><g><use xlink:href="#a9zlgUH2ug" opacity="1" fill-opacity="0" stroke="#000000" stroke-width="1" stroke-opacity="0"></use></g></g><g><use xlink:href="#ajU4R5wER" opacity="1" fill="#00293c" fill-opacity="1"></use><g><use xlink:href="#ajU4R5wER" opacity="1" fill-opacity="0" stroke="#000000" stroke-width="1" stroke-opacity="0"></use></g></g><g><use xlink:href="#c6mCU5cHfL" opacity="1" fill="#00293c" fill-opacity="1"></use><g><use xlink:href="#c6mCU5cHfL" opacity="1" fill-opacity="0" stroke="#000000" stroke-width="1" stroke-opacity="0"></use></g></g><g><use xlink:href="#e1rlNBL5Ec" opacity="1" fill="#00293c" fill-opacity="1"></use><g><use xlink:href="#e1rlNBL5Ec" opacity="1" fill-opacity="0" stroke="#000000" stroke-width="1" stroke-opacity="0"></use></g></g><g><use xlink:href="#aLTNAtgSG" opacity="1" fill="#00293c" fill-opacity="1"></use><g><use xlink:href="#aLTNAtgSG" opacity="1" fill-opacity="0" stroke="#000000" stroke-width="1" stroke-opacity="0"></use></g></g><g><use xlink:href="#a2BBIi1ePR" opacity="1" fill="#00293c" fill-opacity="1"></use><g><use xlink:href="#a2BBIi1ePR" opacity="1" fill-opacity="0" stroke="#000000" stroke-width="1" stroke-opacity="0"></use></g></g><g><use xlink:href="#d1NYkWUyOE" opacity="1" fill="#00293c" fill-opacity="1"></use><g><use xlink:href="#d1NYkWUyOE" opacity="1" fill-opacity="0" stroke="#000000" stroke-width="1" stroke-opacity="0"></use></g></g><g><use xlink:href="#c1aIuODJiX" opacity="1" fill="#00293c" fill-opacity="1"></use><g><use xlink:href="#c1aIuODJiX" opacity="1" fill-opacity="0" stroke="#000000" stroke-width="1" stroke-opacity="0"></use></g></g><g><use xlink:href="#adH5WMR2y" opacity="1" fill="#00293c" fill-opacity="1"></use><g><use xlink:href="#adH5WMR2y" opacity="1" fill-opacity="0" stroke="#000000" stroke-width="1" stroke-opacity="0"></use></g></g><g><use xlink:href="#c3aWSEREph" opacity="1" fill="#00293c" fill-opacity="1"></use><g><use xlink:href="#c3aWSEREph" opacity="1" fill-opacity="0" stroke="#000000" stroke-width="1" stroke-opacity="0"></use></g></g></g></g></svg>