<?xml version="1.0" encoding="UTF-8" standalone="no"?>
<!DOCTYPE svg PUBLIC "-//W3C//DTD SVG 1.1//EN" "http://www.w3.org/Graphics/SVG/1.1/DTD/svg11.dtd">
<svg version="1.1" xmlns="http://www.w3.org/2000/svg" xmlns:xlink="http://www.w3.org/1999/xlink" preserveAspectRatio="xMidYMid meet" viewBox="0 0 640 960" width="640" height="960"><defs><path d="M-1.95 0L638.05 0L638.05 960L-1.95 960L-1.95 0Z" id="b3aAoBurfj"></path><path d="M62.51 921.97L320 960L62.51 960L62.51 921.97Z" id="arEIF9cKw"></path><path d="M138.34 442.46L245.43 644.7L31.25 644.7L-182.92 644.7L-75.84 442.46L31.25 240.23L138.34 442.46Z" id="c2ElhbpgU"></path><path d="M58.1 757.76L77.46 960L38.73 960L0 960L19.36 757.76L38.73 555.53L58.1 757.76Z" id="a4fc7odEvf"></path><path d="M290.16 440.55L95.31 550.52L78.56 367.82L61.82 185.12L273.41 257.83L485.01 330.56L290.16 440.55Z" id="f1Dt1ZnqpX"></path><path d="M0 960L62.51 382.29L0 382.29L0 960Z" id="hP0xbTYp8"></path><path d="M241.53 348.29L-1.95 366.7L2.48 398.07L6.92 429.45L245.96 379.67L485.01 329.89L241.53 348.29Z" id="a5boajOfwE"></path><path d="M371.25 259.87L324.65 354.87L314.22 348.99L303.79 343.12L360.81 254L417.84 164.88L371.25 259.87Z" id="alxWJLZGL"></path><path d="M436.18 255.46L443.1 369.26L339.28 315.53L235.45 261.81L332.34 201.73L429.25 141.66L436.18 255.46Z" id="f17LKwf1cU"></path><path d="M413.88 268.2L365.44 263.91L366.92 255.59L368.39 247.27L415.36 259.87L462.33 272.48L413.88 268.2Z" id="bfrtoo3Lq"></path><path d="M427.76 289.71L384.16 305.28L392.36 259.87L400.55 214.47L435.96 244.3L471.36 274.14L427.76 289.71Z" id="b1mBA3WHWI"></path><path d="M131.16 532.57L119.05 611.72L60.09 569.47L1.13 527.22L72.19 490.31L143.26 453.41L131.16 532.57Z" id="n1iS0rb67Z"></path><path d="M260.68 456.65L185.07 388.93L192.95 381.05L200.84 373.17L268.56 448.77L336.29 524.37L260.68 456.65Z" id="c3d9lVCkMZ"></path><path d="M245.13 509.88L136.27 474.7L212.85 400.13L289.42 325.56L321.7 435.3L353.98 545.05L245.13 509.88Z" id="c1Babi2kpa"></path><path d="M82.56 525.78L21.73 598.09L29.66 604.08L37.59 610.06L90.49 531.76L143.39 453.46L82.56 525.78Z" id="c1crT0f3lg"></path><path d="M102.17 218.21L191.25 350.7L13.08 350.7L-165.08 350.7L-76.01 218.21L13.08 85.71L102.17 218.21Z" id="b47k7oQ3re"></path><path d="M109.69 52.01L194.9 230.18L24.48 230.18L-145.94 230.18L-60.74 52.01L24.48 -126.16L109.69 52.01Z" id="c2j8kM7p7x"></path><path d="M43.14 218.21L62.51 394.97L23.78 394.97L-14.96 394.97L4.41 218.21L23.78 41.45L43.14 218.21Z" id="c3Hjhxjlji"></path><path d="M0 272.48L38.73 0L0 0L0 272.48Z" id="a2g0mS5n5w"></path><path d="M73.64 42.76L-1.95 145.11L16.72 156.56L35.4 168.01L92.31 54.21L149.22 -59.58L73.64 42.76Z" id="b3gl1dfr5p"></path><path d="M189.09 42.99L214.05 183.66L69.92 121.82L-74.2 59.98L44.95 -18.86L164.12 -97.7L189.09 42.99Z" id="adxAEzz0l"></path><path d="M65.76 152.91L131.52 247.27L0 247.27L-131.52 247.27L-65.77 152.91L0 58.54L65.76 152.91Z" id="f1d6zXMcxd"></path><path d="M82.48 612.22L165 792.24L-0.05 792.24L-165.08 792.24L-82.57 612.22L-0.05 432.2L82.48 612.22Z" id="d11DDSfezK"></path><path d="M132.39 251.86L110.41 267.23L107.94 240.84L105.47 214.46L129.92 225.48L154.37 236.5L132.39 251.86Z" id="btzNBupLc"></path><path d="M177.99 220.71L199.66 204.91L202.65 231.24L205.64 257.57L180.98 247.04L156.32 236.5L177.99 220.71Z" id="a1v513hX3v"></path><path d="M94.26 220.39L105.77 214.46L106.62 224.25L107.47 234.03L95.11 230.17L82.76 226.32L94.26 220.39Z" id="bHoS6x0S8"></path><path d="M212.61 218.53L201.12 224.47L200.25 214.69L199.39 204.91L211.75 208.75L224.1 212.59L212.61 218.53Z" id="e2P859eJ3U"></path><path d="M178.37 248.77L201.18 259.09L158.29 263.72L115.4 268.35L135.48 253.39L155.56 238.44L178.37 248.77Z" id="b1PzGkneR1"></path><path d="M139.66 292.31L115.4 268.25L158.3 263.68L201.19 259.1L182.56 287.74L163.92 316.37L139.66 292.31Z" id="g4EFL5QKE"></path><path d="M206.46 292.38L208.33 323.05L189.61 318.09L170.9 313.12L187.74 287.41L204.58 261.7L206.46 292.38Z" id="b1h29y7VaD"></path><path d="M134.23 292.86L156.32 314.84L136.4 323.94L116.48 333.05L114.31 301.97L112.14 270.89L134.23 292.86Z" id="b19te3zTk7"></path><path d="M157.08 333.33L145.82 323.17L166.29 321.28L186.75 319.38L177.55 331.43L168.34 343.48L157.08 333.33Z" id="a8LUzu3I"></path><path d="M129.9 343.04L118.29 336.28L131.78 329.74L145.26 323.2L143.38 336.5L141.5 349.8L129.9 343.04Z" id="e72FM8k2E7"></path><path d="M189.06 331.58L186.75 319.38L197.3 322.29L207.84 325.2L199.61 334.49L191.37 343.79L189.06 331.58Z" id="e4gjo2KtSO"></path><path d="M155.39 336.88L163.91 345.92L153.46 349.15L143 352.38L144.94 340.11L146.87 327.85L155.39 336.88Z" id="a16hTWU54Z"></path><path d="M129.41 346.39L141.54 353.47L131.67 360.26L121.81 367.04L119.54 353.17L117.27 339.3L129.41 346.39Z" id="a1vSDLJRvu"></path><path d="M211.89 339.49L213.97 351.73L203.48 348.62L192.99 345.51L201.4 336.38L209.82 327.24L211.89 339.49Z" id="g87fhTH6b8"></path><path d="M187.35 334.36L189.62 344.73L181.7 343.34L173.78 341.95L179.43 332.98L185.09 324L187.35 334.36Z" id="b3XPXGH4Ce"></path><path d="M140.24 382.32L123.3 369.05L133.01 362.05L142.73 355.05L149.96 375.32L157.19 395.59L140.24 382.32Z" id="aMFmRqbA"></path><path d="M156.67 376.43L143 354.98L155.49 351.02L167.98 347.06L169.16 372.47L170.34 397.88L156.67 376.43Z" id="c16AkKPfy2"></path><path d="M171.56 372.12L168.07 347.06L179.99 348.27L191.9 349.47L183.47 373.32L175.04 397.17L171.56 372.12Z" id="afHvRuUNl"></path><path d="M192.45 371.32L191.9 349.8L203.48 352.84L215.06 355.87L204.03 374.35L193 392.83L192.45 371.32Z" id="aqsvC7gyB"></path><path d="M153.46 372.72L163.16 389.15L160.21 390.57L157.26 391.98L150.51 374.13L143.75 356.28L153.46 372.72Z" id="dfLzGvRdQ"></path><path d="M191.05 370.3L190.85 387.44L186.18 386.74L181.52 386.03L186.39 369.6L191.25 353.17L191.05 370.3Z" id="a4XbmXI1qU"></path><path d="M170.9 370.2L172.89 385.5L171.72 385.61L170.54 385.72L169.72 370.3L168.9 354.89L170.9 370.2Z" id="da9SbOvawx"></path><path d="M109.28 301L106.83 271.21L94.32 275.11L81.82 279.02L96.77 304.91L111.72 330.8L109.28 301Z" id="fAnuw5Gi9"></path><path d="M223.71 293.96L235.45 266.46L222.57 264.08L209.69 261.7L210.83 291.57L211.96 321.45L223.71 293.96Z" id="d172zuEVha"></path><path d="M98.46 313.49L117.27 346.11L104.96 350.58L92.64 355.05L86.14 317.96L79.64 280.87L98.46 313.49Z" id="bAw9MPMft"></path><path d="M238.12 301.88L237.76 334.23L224.96 331.44L212.16 328.65L225.32 299.08L238.47 269.52L238.12 301.88Z" id="c4yDtL1QNO"></path><path d="M105.47 371.97L92.42 358.22L104.63 353.03L116.83 347.84L117.68 366.78L118.52 385.72L105.47 371.97Z" id="a15Ou48w2I"></path><path d="M215.56 347.91L212.67 331.41L225.43 334.37L238.19 337.33L228.33 350.87L218.46 364.41L215.56 347.91Z" id="g1yja9X6zy"></path><path d="M124.22 381.63L119.58 385.94L119.44 377.49L119.29 369.04L124.08 373.18L128.87 377.33L124.22 381.63Z" id="a2uSTjF4GR"></path><path d="M213.71 361.78L216.62 358.97L217.29 363.66L217.96 368.35L214.38 366.47L210.81 364.58L213.71 361.78Z" id="b2OabfoB4"></path></defs><g><g><g><use xlink:href="#b3aAoBurfj" opacity="1" fill="#f1f3ce" fill-opacity="1"></use></g><g><use xlink:href="#arEIF9cKw" opacity="1" fill="#a49279" fill-opacity="1"></use></g><g><use xlink:href="#c2ElhbpgU" opacity="1" fill="#1e656d" fill-opacity="1"></use></g><g><use xlink:href="#a4fc7odEvf" opacity="1" fill="#a49279" fill-opacity="1"></use></g><g><use xlink:href="#f1Dt1ZnqpX" opacity="1" fill="#1d6269" fill-opacity="1"></use></g><g><use xlink:href="#hP0xbTYp8" opacity="1" fill="#a49279" fill-opacity="1"></use></g><g><use xlink:href="#a5boajOfwE" opacity="1" fill="#a49279" fill-opacity="1"></use></g><g><use xlink:href="#alxWJLZGL" opacity="1" fill="#a49279" fill-opacity="1"></use></g><g><use xlink:href="#f17LKwf1cU" opacity="1" fill="#226971" fill-opacity="1"></use></g><g><use xlink:href="#bfrtoo3Lq" opacity="1" fill="#a49279" fill-opacity="1"></use></g><g><use xlink:href="#b1mBA3WHWI" opacity="1" fill="#2e7e86" fill-opacity="1"></use></g><g><use xlink:href="#n1iS0rb67Z" opacity="1" fill="#307f87" fill-opacity="1"></use></g><g><use xlink:href="#c3d9lVCkMZ" opacity="1" fill="#a49279" fill-opacity="1"></use></g><g><use xlink:href="#c1Babi2kpa" opacity="1" fill="#276e75" fill-opacity="1"></use></g><g><use xlink:href="#c1crT0f3lg" opacity="1" fill="#a49279" fill-opacity="1"></use></g><g><use xlink:href="#b47k7oQ3re" opacity="1" fill="#1e656d" fill-opacity="1"></use></g><g><use xlink:href="#c2j8kM7p7x" opacity="1" fill="#1e656d" fill-opacity="1"></use></g><g><use xlink:href="#c3Hjhxjlji" opacity="1" fill="#a49279" fill-opacity="1"></use></g><g><use xlink:href="#a2g0mS5n5w" opacity="1" fill="#a49279" fill-opacity="1"></use></g><g><use xlink:href="#b3gl1dfr5p" opacity="1" fill="#a49279" fill-opacity="1"></use></g><g><use xlink:href="#adxAEzz0l" opacity="1" fill="#38828a" fill-opacity="1"></use></g><g><use xlink:href="#f1d6zXMcxd" opacity="1" fill="#307f87" fill-opacity="1"></use></g><g><use xlink:href="#d11DDSfezK" opacity="1" fill="#358890" fill-opacity="1"></use></g><g><use xlink:href="#btzNBupLc" opacity="1" fill="#00293c" fill-opacity="1"></use></g><g><use xlink:href="#a1v513hX3v" opacity="1" fill="#00293c" fill-opacity="1"></use></g><g><use xlink:href="#bHoS6x0S8" opacity="1" fill="#00293c" fill-opacity="1"></use></g><g><use xlink:href="#e2P859eJ3U" opacity="1" fill="#00293c" fill-opacity="1"></use></g><g><use xlink:href="#b1PzGkneR1" opacity="1" fill="#00293c" fill-opacity="1"></use></g><g><use xlink:href="#g4EFL5QKE" opacity="1" fill="#094d54" fill-opacity="1"></use></g><g><use xlink:href="#b1h29y7VaD" opacity="1" fill="#f1f3ce" fill-opacity="1"></use></g><g><use xlink:href="#b19te3zTk7" opacity="1" fill="#f1f3ce" fill-opacity="1"></use></g><g><use xlink:href="#a8LUzu3I" opacity="1" fill="#f1f3ce" fill-opacity="1"></use></g><g><use xlink:href="#e72FM8k2E7" opacity="1" fill="#094d54" fill-opacity="1"></use></g><g><use xlink:href="#e4gjo2KtSO" opacity="1" fill="#094d54" fill-opacity="1"></use></g><g><use xlink:href="#a16hTWU54Z" opacity="1" fill="#00293c" fill-opacity="1"></use></g><g><use xlink:href="#a1vSDLJRvu" opacity="1" fill="#00293c" fill-opacity="1"></use></g><g><use xlink:href="#g87fhTH6b8" opacity="1" fill="#00293c" fill-opacity="1"></use></g><g><use xlink:href="#b3XPXGH4Ce" opacity="1" fill="#00293c" fill-opacity="1"></use></g><g><use xlink:href="#aMFmRqbA" opacity="1" fill="#00293c" fill-opacity="1"></use></g><g><use xlink:href="#c16AkKPfy2" opacity="1" fill="#00293c" fill-opacity="1"></use></g><g><use xlink:href="#afHvRuUNl" opacity="1" fill="#00293c" fill-opacity="1"></use></g><g><use xlink:href="#aqsvC7gyB" opacity="1" fill="#00293c" fill-opacity="1"></use></g><g><use xlink:href="#dfLzGvRdQ" opacity="1" fill="#1f666e" fill-opacity="1"></use></g><g><use xlink:href="#a4XbmXI1qU" opacity="1" fill="#1f666e" fill-opacity="1"></use></g><g><use xlink:href="#da9SbOvawx" opacity="1" fill="#1f666e" fill-opacity="1"></use></g><g><use xlink:href="#fAnuw5Gi9" opacity="1" fill="#00293c" fill-opacity="1"></use></g><g><use xlink:href="#d172zuEVha" opacity="1" fill="#00293c" fill-opacity="1"></use></g><g><use xlink:href="#bAw9MPMft" opacity="1" fill="#00293c" fill-opacity="1"></use></g><g><use xlink:href="#c4yDtL1QNO" opacity="1" fill="#00293c" fill-opacity="1"></use></g><g><use xlink:href="#a15Ou48w2I" opacity="1" fill="#00293c" fill-opacity="1"></use></g><g><use xlink:href="#g1yja9X6zy" opacity="1" fill="#00293c" fill-opacity="1"></use></g><g><use xlink:href="#a2uSTjF4GR" opacity="1" fill="#00293c" fill-opacity="1"></use></g><g><use xlink:href="#b2OabfoB4" opacity="1" fill="#00293c" fill-opacity="1"></use></g></g></g></svg>